<svg width="28" height="28" viewBox="0 0 28 28" fill="none" xmlns="http://www.w3.org/2000/svg"><path d="M14 0.453125C11.6378 0.453777 9.31686 1.07191 7.26727 2.24622C5.21768 3.42053 3.51067 5.11022 2.31552 7.14773C1.12037 9.18523 0.478607 11.4998 0.453868 13.8618C0.429129 16.2238 1.02228 18.5513 2.17449 20.6134L1.00906 24.6922C0.918003 25.0111 0.913864 25.3484 0.997071 25.6694C1.08028 25.9904 1.2478 26.2833 1.48229 26.5178C1.71678 26.7522 2.00969 26.9197 2.33068 27.0029C2.65168 27.0861 2.98907 27.0819 3.30791 26.9908L7.38685 25.8255C9.19371 26.8359 11.2081 27.4188 13.2753 27.5294C15.3426 27.64 17.4076 27.2754 19.312 26.4635C21.2164 25.6517 22.9093 24.4143 24.261 22.8462C25.6126 21.2781 26.5868 19.4212 27.109 17.4179C27.6311 15.4147 27.6872 13.3184 27.273 11.2901C26.8587 9.26175 25.9852 7.35533 24.7194 5.71722C23.4536 4.07911 21.8292 2.75286 19.971 1.84033C18.1128 0.927798 16.0702 0.45325 14 0.453125ZM14 25.9531C11.8533 25.9545 9.74598 25.3771 7.8999 24.2815C7.80655 24.226 7.70283 24.1902 7.59513 24.1762C7.48742 24.1622 7.37799 24.1704 7.27356 24.2003L2.87003 25.4584C2.82447 25.4714 2.77625 25.472 2.73038 25.4602C2.6845 25.4483 2.64264 25.4244 2.60913 25.3908C2.57563 25.3573 2.55169 25.3155 2.53981 25.2696C2.52794 25.2237 2.52855 25.1755 2.54158 25.13L3.79971 20.7264C3.82949 20.622 3.83763 20.5126 3.82363 20.405C3.80963 20.2973 3.77379 20.1937 3.7183 20.1003C2.37193 17.8321 1.81356 15.1822 2.13017 12.5635C2.44677 9.94482 3.62057 7.50437 5.46872 5.62232C7.31687 3.74027 9.73558 2.5223 12.3481 2.15815C14.9606 1.79401 17.6202 2.30412 19.9125 3.60904C22.2049 4.91396 24.0013 6.9404 25.022 9.37269C26.0426 11.805 26.2302 14.5065 25.5554 17.0565C24.8806 19.6065 23.3815 21.8618 21.2914 23.4709C19.2013 25.0801 16.6377 25.9528 14 25.9531ZM19.0469 11.875C19.0469 12.0863 18.9629 12.289 18.8135 12.4385C18.664 12.5879 18.4613 12.6719 18.25 12.6719H9.74998C9.53863 12.6719 9.33595 12.5879 9.1865 12.4385C9.03706 12.289 8.9531 12.0863 8.9531 11.875C8.9531 11.6637 9.03706 11.461 9.1865 11.3115C9.33595 11.1621 9.53863 11.0781 9.74998 11.0781H18.25C18.4613 11.0781 18.664 11.1621 18.8135 11.3115C18.9629 11.461 19.0469 11.6637 19.0469 11.875ZM19.0469 16.125C19.0469 16.3363 18.9629 16.539 18.8135 16.6885C18.664 16.8379 18.4613 16.9219 18.25 16.9219H9.74998C9.53863 16.9219 9.33595 16.8379 9.1865 16.6885C9.03706 16.539 8.9531 16.3363 8.9531 16.125C8.9531 15.9137 9.03706 15.711 9.1865 15.5615C9.33595 15.4121 9.53863 15.3281 9.74998 15.3281H18.25C18.4613 15.3281 18.664 15.4121 18.8135 15.5615C18.9629 15.711 19.0469 15.9137 19.0469 16.125Z" fill="white"/></svg>