<svg width="50" height="50" fill="none" xmlns="http://www.w3.org/2000/svg"><g clip-path="url(#clip0)" fill="#C43100"><path d="M28.153 30.805a.732.732 0 00.733-.733v-6.908l2.206 2.558a.73.73 0 001.033.076.732.732 0 00.077-1.032l-3.494-4.05a.732.732 0 00-1.11 0l-3.493 4.05a.733.733 0 001.109.956l2.207-2.558v6.908c0 .405.328.733.732.733zm-4.521 5.082c0 .404.328.732.732.732h7.578a.732.732 0 100-1.465h-7.578a.732.732 0 00-.732.733zM45.087 9.259l-2.928 2.928-2.079-2.079a.733.733 0 00-1.036 1.036l2.597 2.597a.731.731 0 001.036 0l3.446-3.446a.732.732 0 10-1.036-1.036z"/><path d="M42.583 3.916c-3.715 0-6.8 2.745-7.334 6.314h-22.12c-.76 0-1.38.619-1.38 1.38v11.707l-2.346-2.346a1.287 1.287 0 00-1.818 0L4.55 24.007a.732.732 0 101.035 1.035l.485-.484 2.222 2.222c.032.032.065.069.101.107.242.262.607.658 1.142.674h7.832a.745.745 0 010 1.489h-2.252a.732.732 0 00-.518 1.25l7.457 7.457c.293.293.318.766.055 1.055a.74.74 0 01-.534.245.731.731 0 01-.543-.218l-.001-.001-5.846-5.846a.733.733 0 00-1.036 1.036l7.975 7.975c.293.293.317.766.055 1.055a.739.739 0 01-.534.244.74.74 0 01-.544-.218l-8.004-8.004a.732.732 0 10-1.036 1.036l6.613 6.612.017.02a.74.74 0 01-.044 1.058c-.29.262-.762.238-1.055-.055l-6.583-6.583a.733.733 0 00-1.036 1.036l5.15 5.15a.74.74 0 01.218.544.74.74 0 01-.244.534c-.289.263-.762.238-1.055-.055l-8.253-8.252a5.145 5.145 0 01-1.513-3.58 1.808 1.808 0 00-.538-1.257l-2.2-2.198 1.63-1.63a.732.732 0 10-1.035-1.036L.376 28.18a1.287 1.287 0 000 1.817l2.326 2.327a.357.357 0 01.109.242 6.603 6.603 0 001.943 4.594l8.252 8.252c.445.446 1.027.67 1.605.67.529 0 1.055-.188 1.472-.567a2.21 2.21 0 00.513-.69c.854.815 2.177.846 3.037.064.218-.2.392-.434.514-.692a2.22 2.22 0 001.533.569 2.191 2.191 0 002.098-1.73h19.399c.76 0 1.38-.618 1.38-1.38V36.62a.732.732 0 10-1.465 0v4.954h-19.5a2.29 2.29 0 00-.432-.606l-.657-.656c.258-.122.491-.295.69-.513.794-.873.75-2.224-.103-3.077l-6.207-6.206h.485a2.21 2.21 0 002.208-2.21 2.21 2.21 0 00-2.209-2.208h-4.153V11.695h10.071v5.537c0 .76.62 1.38 1.38 1.38h6.976c.761 0 1.38-.62 1.38-1.38v-.925a.732.732 0 10-1.465 0v.84H24.75v-5.452h6.806v1.194a.732.732 0 101.465 0v-1.194h2.155c.19 3.922 3.44 7.054 7.407 7.054.172 0 .34-.008.51-.02v14.472a.732.732 0 101.464 0v-14.72c3.134-.868 5.443-3.743 5.443-7.15 0-4.09-3.327-7.416-7.417-7.416zM11.75 26.097H9.67c-.059-.05-.144-.143-.2-.203a5.461 5.461 0 00-.141-.15l-2.222-2.222 1.388-1.388 2.222 2.222c.032.032.066.069.102.107.208.226.51.551.931.647v.987zm30.834-8.813a5.959 5.959 0 01-5.952-5.952 5.959 5.959 0 015.952-5.952 5.959 5.959 0 015.952 5.952 5.959 5.959 0 01-5.952 5.952z"/></g><defs><clipPath id="clip0"><path fill="#fff" d="M0 0h50v50H0z"/></clipPath></defs></svg>