<svg width="50" height="50" fill="none" xmlns="http://www.w3.org/2000/svg"><g clip-path="url(#clip0)" fill="#C43100"><path d="M25 4.618a15.04 15.04 0 00-10.81 4.535l-.044.044a.73.73 0 001.045 1.021l.042-.042A13.593 13.593 0 0125 6.08c7.55 0 13.693 6.142 13.693 13.693 0 7.55-6.143 13.692-13.693 13.692s-13.693-6.142-13.693-13.693c0-2.466.663-4.884 1.917-6.991a.73.73 0 10-1.256-.748 15.138 15.138 0 00-2.122 7.74c0 8.356 6.798 15.154 15.154 15.154s15.154-6.798 15.154-15.154c0-8.357-6.798-15.155-15.154-15.155z"/><path d="M43.51 16.731c-.397-.59-.772-1.148-.912-1.674-.15-.562-.106-1.254-.058-1.986.07-1.093.144-2.223-.414-3.187-.567-.98-1.59-1.483-2.581-1.97-.651-.319-1.266-.62-1.666-1.02-.4-.4-.702-1.015-1.021-1.667-.487-.99-.99-2.014-1.97-2.58-.964-.558-2.094-.485-3.187-.414-.732.047-1.424.092-1.986-.058-.526-.14-1.084-.515-1.674-.912C27.159.671 26.16 0 25 0s-2.16.671-3.041 1.263c-.59.397-1.148.771-1.674.912-.562.15-1.254.105-1.986.058-1.093-.071-2.223-.145-3.188.414-.98.566-1.482 1.59-1.969 2.58-.32.652-.621 1.267-1.021 1.666-.4.4-1.015.702-1.666 1.022-.99.486-2.014.989-2.581 1.969-.558.964-.485 2.094-.414 3.187.048.732.092 1.424-.058 1.986-.14.526-.515 1.084-.911 1.674-.593.882-1.264 1.882-1.264 3.041 0 1.16.671 2.16 1.264 3.042.396.59.77 1.148.911 1.674.15.562.106 1.253.058 1.986-.07 1.093-.144 2.223.414 3.187.567.98 1.59 1.483 2.58 1.97.652.319 1.267.621 1.667 1.02.37.371.657.927.952 1.525l-5.308 9.765c-.228.419-.221.916.018 1.328.238.413.665.666 1.142.678l4.07.098 2.297 3.362a1.347 1.347 0 001.19.59 1.348 1.348 0 001.124-.707l5.573-10.253c.561.294 1.165.508 1.82.508.656 0 1.26-.214 1.822-.508l5.573 10.253a1.348 1.348 0 001.195.71c.449 0 .863-.218 1.119-.592l2.296-3.363 4.07-.098a1.348 1.348 0 001.143-.678c.239-.412.245-.909.018-1.328l-1.941-3.57a.73.73 0 10-1.284.697l1.86 3.422-3.954.096a1.36 1.36 0 00-1.089.591l-2.23 3.266-5.532-10.177c.581-.39 1.131-.757 1.65-.896.562-.15 1.254-.105 1.986-.058 1.093.071 2.223.145 3.188-.414.51-.295.89-.715 1.207-1.19l1.306 2.403a.73.73 0 101.284-.698l-1.759-3.237c.295-.598.581-1.154.952-1.524.4-.4 1.015-.702 1.666-1.022.99-.486 2.014-.989 2.58-1.969.559-.964.486-2.094.415-3.187-.048-.733-.093-1.424.057-1.986.141-.526.515-1.084.912-1.674.592-.882 1.264-1.882 1.264-3.041 0-1.16-.672-2.16-1.264-3.042zM16.402 48.443l-2.23-3.266a1.36 1.36 0 00-1.089-.591L9.13 44.49l4.773-8.781c.317.474.698.894 1.208 1.19.965.558 2.095.484 3.188.413.732-.047 1.424-.092 1.986.058.519.139 1.069.505 1.65.896l-5.532 10.177zM42.296 22c-.446.664-.907 1.35-1.11 2.112-.213.793-.158 1.64-.105 2.458.06.915.116 1.78-.22 2.36-.345.596-1.13.981-1.96 1.39-.73.358-1.484.728-2.055 1.3-.572.57-.942 1.325-1.3 2.054-.408.831-.794 1.616-1.39 1.96-.58.336-1.444.28-2.36.221-.818-.053-1.664-.108-2.458.104-.761.204-1.448.665-2.111 1.11-.778.523-1.512 1.016-2.227 1.016-.714 0-1.449-.493-2.227-1.016-.663-.445-1.35-.906-2.111-1.11a5.176 5.176 0 00-1.341-.152c-.373 0-.748.024-1.117.048-.916.06-1.78.116-2.36-.22-.596-.345-.982-1.13-1.39-1.96-.358-.73-.729-1.484-1.3-2.056-.571-.57-1.325-.941-2.055-1.3-.83-.408-1.615-.793-1.96-1.389-.336-.58-.28-1.445-.22-2.36.053-.819.107-1.665-.105-2.458-.203-.762-.664-1.448-1.11-2.112-.522-.778-1.015-1.512-1.015-2.226 0-.715.493-1.45 1.015-2.227.446-.664.907-1.35 1.11-2.111.212-.794.158-1.64.104-2.459-.059-.915-.115-1.78.221-2.36.345-.596 1.13-.981 1.96-1.39.73-.358 1.484-.728 2.055-1.3.571-.57.942-1.325 1.3-2.054.408-.831.794-1.616 1.39-1.96.58-.336 1.444-.28 2.36-.221.818.053 1.664.108 2.458-.104.761-.204 1.448-.665 2.111-1.11.778-.523 1.512-1.016 2.227-1.016.714 0 1.449.493 2.227 1.015.663.446 1.35.907 2.111 1.11.794.213 1.64.158 2.458.105.916-.06 1.78-.115 2.36.22.596.345.982 1.13 1.39 1.96.358.73.729 1.484 1.3 2.056.571.57 1.325.941 2.055 1.3.83.408 1.615.793 1.96 1.389.336.58.28 1.445.22 2.36-.053.818-.108 1.664.105 2.458.203.762.664 1.448 1.11 2.112.522.777 1.015 1.512 1.015 2.226 0 .715-.493 1.45-1.015 2.227z"/><path d="M35.035 19.088a1.787 1.787 0 00.455-1.844 1.787 1.787 0 00-1.452-1.224l-4.955-.72a.336.336 0 01-.254-.184l-2.216-4.49A1.787 1.787 0 0025 9.622c-.69 0-1.307.384-1.613 1.002l-2.216 4.491a.336.336 0 01-.253.184l-4.956.72a1.79 1.79 0 00-1.452 1.224 1.787 1.787 0 00.455 1.844l3.586 3.495c.08.078.116.19.097.299l-.847 4.935a1.79 1.79 0 00.716 1.76 1.792 1.792 0 001.894.136l4.432-2.33a.337.337 0 01.314 0l4.432 2.33a1.79 1.79 0 001.894-.137c.558-.405.832-1.08.716-1.759l-.847-4.936a.337.337 0 01.097-.298l3.586-3.495zm-5.123 4.04l.846 4.936a.328.328 0 01-.134.33.328.328 0 01-.354.025l-4.433-2.33a1.798 1.798 0 00-1.674 0l-4.432 2.33a.328.328 0 01-.355-.025.328.328 0 01-.134-.33l.846-4.935a1.798 1.798 0 00-.517-1.592l-3.586-3.496a.328.328 0 01-.085-.345.328.328 0 01.272-.23l4.956-.72a1.798 1.798 0 001.354-.983l2.216-4.49a.328.328 0 01.302-.188c.063 0 .218.018.302.187l2.216 4.491a1.8 1.8 0 001.354.984l4.956.72c.187.027.253.17.272.23.02.059.05.213-.085.344l-3.586 3.496a1.798 1.798 0 00-.517 1.591z"/></g><defs><clipPath id="clip0"><path fill="#fff" d="M0 0h50v50H0z"/></clipPath></defs></svg>