<svg width="160" height="138" fill="none" xmlns="http://www.w3.org/2000/svg"><path d="M40 31.474h120l-40 100H0l40-100z" fill="#C43100"/><path d="M121.621 31.413l18.431.014-40.444 99.966-18.465-.014 40.478-99.966z" fill="#AB2B00"/><g clip-path="url(#clip0)"><path d="M99.42 34.873a19.2 19.2 0 01-8.936-16.278V8.871a1.78 1.78 0 00-1.095-1.64 1.768 1.768 0 00-1.934.386L74.642 20.43c-9.234 9.233-14.32 21.512-14.32 34.57 0 13.697 11.142 24.839 24.84 24.839 7.397 0 14.033-3.27 18.588-8.419-5.825 17.245-20.546 30.425-38.687 34.038 4.869-4.65 8.952-12.704 11.637-23.412l-3.442-.863c-3.59 14.325-9.793 23.642-16.484 25.057V79.8c3.043-.043 6.075-.17 9.027-.432l-.312-3.533c-2.85.25-5.777.374-8.715.416V33.735c1.751.024 3.5.076 5.22.175l.204-3.542a125.795 125.795 0 00-5.425-.182V3.753c4.802 1.043 9.485 6.257 13.062 14.683l3.267-1.388c-2.294-5.399-5.014-9.598-8.016-12.483 4.853.969 9.558 2.611 13.92 4.918l1.66-3.138C72.815 2.195 63.94 0 55 0 24.674 0 0 24.674 0 55s24.674 55 55 55 55-24.674 55-55v-.853c0-7.853-3.955-15.058-10.58-19.274zM33.71 55c0-6.902.6-13.537 1.672-19.617 5.558-.981 11.581-1.56 17.844-1.653v42.54c-6.264-.091-12.286-.672-17.843-1.652C34.309 68.537 33.71 61.902 33.71 55zm-2.1 18.873C15.11 70.279 3.549 63.082 3.549 55S15.11 39.721 31.611 36.127c-.939 5.865-1.45 12.211-1.45 18.873 0 6.662.511 13.008 1.45 18.873zM53.227 3.75v26.433c-6.015.081-11.76.574-17.099 1.43C39.456 16.327 45.875 5.296 53.227 3.75zm0 76.069v26.432c-7.35-1.547-13.77-12.577-17.099-27.862 5.34.855 11.084 1.348 17.099 1.43zM44.956 4.54c-5.66 5.404-10.163 15.292-12.652 27.764-12.47 2.49-22.36 6.992-27.764 12.652C8.58 24.627 24.627 8.58 44.956 4.54zM4.54 65.044c5.404 5.66 15.292 10.163 27.764 12.651 2.49 12.47 6.992 22.361 12.652 27.765C24.627 101.42 8.58 85.373 4.54 65.044zm83.265 11.064c2.867-3.104 4.453-7.1 4.453-11.35 0-4.478-1.744-8.688-4.911-11.855a25.456 25.456 0 01-1.57-1.732c4.72-1.087 8.255-5.317 8.255-10.365h-3.548c0 3.884-3.139 7.04-7.01 7.089a25.455 25.455 0 01-3.635-13.119V33.71H76.29v1.066c0 7.796 3.036 15.123 8.548 20.635a13.175 13.175 0 013.096 4.912h-2.773a7.104 7.104 0 01-7.097-7.097h-3.548c0 5.87 4.774 10.645 10.645 10.645h3.506c.02.294.043.59.043.887a13.13 13.13 0 01-3.872 9.347l-2.045 2.045C72.165 74.967 63.87 65.938 63.87 55c0-12.111 4.716-23.498 13.28-32.061l9.785-9.785v5.441c0 7.853 3.954 15.058 10.579 19.274a19.2 19.2 0 018.937 16.278V55c0 10.842-8.153 19.8-18.647 21.108z" fill="#151515"/></g><defs><clipPath id="clip0"><path fill="#fff" d="M0 0h110v110H0z"/></clipPath></defs></svg>