<svg width="160" height="138" fill="none" xmlns="http://www.w3.org/2000/svg"><path d="M40 31.474h120l-40 100H0l40-100z" fill="#C43100"/><path d="M121.621 31.413l18.431.014-40.444 99.966-18.465-.014 40.478-99.966z" fill="#AB2B00"/><path d="M43.676 30.33v3.236h63.089v1.618h-3.236v3.235h3.236v57.426h-3.236v3.236h3.236v1.617H21.029a17.712 17.712 0 01-11.606-4.323l1.496-2.585a15.429 15.429 0 01-2.38-1.698L7.015 93.85a17.914 17.914 0 01-.983-1.387l1.448-1.381a15.486 15.486 0 01-1.809-2.297l-1.153.742c-.199-.495-.378-1-.533-1.516l.954-.492a15.311 15.311 0 01-1.086-2.71l-.497.145a18.05 18.05 0 01-.108-1.516l.261-.05c-.109-.57-.181-1.15-.226-1.733.644-9.23 8.354-16.545 17.746-16.545 9.811 0 17.794 7.983 17.794 17.794h3.235V38.42h1.618v-3.235h-1.617v-8.088c0-11.596-9.434-21.03-21.03-21.03C9.434 6.066 0 15.5 0 27.096v55.808c0 11.596 9.434 21.03 21.03 21.03H110V30.331H43.676zm-40.44-3.235c0-9.811 7.982-17.794 17.794-17.794 9.811 0 17.794 7.982 17.794 17.794v44.612c-3.729-5.903-10.311-9.832-17.794-9.832-7.484 0-14.066 3.929-17.795 9.832V27.095z" fill="#151515"/><path d="M48.53 35.183h-3.236v3.235h3.236v-3.235zm4.852 0h-3.235v3.235h3.235v-3.235zm4.853 0H55v3.235h3.235v-3.235zm4.853 0h-3.235v3.235h3.235v-3.235zm4.853 0h-3.235v3.235h3.235v-3.235zm4.853 0H69.56v3.235h3.235v-3.235zm4.853 0h-3.235v3.235h3.235v-3.235zm4.853 0h-3.235v3.235H82.5v-3.235zm4.853 0h-3.235v3.235h3.235v-3.235zm4.853 0h-3.235v3.235h3.235v-3.235zm4.853 0h-3.236v3.235h3.236v-3.235zm4.853 0h-3.236v3.235h3.236v-3.235zM43.676 95.844h-3.235v3.236h3.235v-3.236zm-4.852 0h-3.236v3.236h3.236v-3.236zm-4.854 0h-3.235v3.236h3.236v-3.236zm-4.852 0h-3.236v3.236h3.236v-3.236zm-10.515.002c-.733 0-1.47-.053-2.19-.155l-.456 3.203c.87.124 1.76.187 2.646.187h.809v-3.236h-.81zm-6.385-1.386l-1.345 2.943c1.073.491 2.199.88 3.345 1.157l.76-3.144a15.287 15.287 0 01-2.76-.955zm12.047 1.384h-3.236v3.236h3.236v-3.236zm24.265 0h-3.236v3.236h3.236v-3.236zm4.852 0h-3.235v3.236h3.235v-3.236zm4.853 0H55v3.236h3.235v-3.236zm4.853 0h-3.235v3.236h3.235v-3.236zm4.853 0h-3.235v3.236h3.235v-3.236zm4.853 0H69.56v3.236h3.235v-3.236zm4.853 0h-3.235v3.236h3.235v-3.236zm4.853 0h-3.235v3.236H82.5v-3.236zm4.853 0h-3.235v3.236h3.235v-3.236zm4.853 0h-3.235v3.236h3.235v-3.236zm4.853 0h-3.236v3.236h3.236v-3.236zm4.853 0h-3.236v3.236h3.236v-3.236zM35.588 33.565h-3.235v21.03h3.235v-21.03zm0 24.265h-3.235v3.235h3.235V57.83zM9.706 43.27H6.471v16.986h3.235V43.271zm0-12.94H6.471v9.706h3.235V30.33zm0-6.471H6.471v3.235h3.235V23.86z" fill="#151515"/><path stroke="#151515" stroke-width="3.24" d="M100.62 42v51m-10-51v51m-10-51v51m-9-51v51m-10-51v51m-10-51v51"/></svg>