<svg width="160" height="138" fill="none" xmlns="http://www.w3.org/2000/svg"><path d="M40 31.474h120l-40 100H0l40-100z" fill="#C43100"/><path d="M121.621 31.413l18.431.014-40.444 99.966-18.465-.014 40.478-99.966z" fill="#AB2B00"/><path d="M32.656 72.188C44.988 72.188 55 62.175 55 49.843S44.988 27.5 32.656 27.5 10.313 37.512 10.313 49.844c.021 12.332 10.011 22.322 22.343 22.343zm0-41.25c10.442 0 18.907 8.464 18.907 18.906 0 10.441-8.465 18.906-18.907 18.906-10.441 0-18.906-8.465-18.906-18.906.021-10.442 8.465-18.885 18.906-18.907z" fill="#151515"/><path d="M20.625 49.844c0-6.639 5.393-12.032 12.031-12.032.946 0 .946-3.437 0-3.437-8.529 0-15.468 6.94-15.468 15.469 0 .945 3.437.945 3.437 0zm53.281 13.75c-12.332 0-22.344 10.012-22.344 22.343 0 12.332 10.012 22.344 22.344 22.344S96.25 98.269 96.25 85.937c-.022-12.331-10.012-22.322-22.344-22.343zm0 41.25C63.465 104.844 55 96.379 55 85.938c0-10.442 8.465-18.907 18.906-18.907 10.442 0 18.906 8.465 18.906 18.906-.021 10.442-8.464 18.885-18.906 18.907z" fill="#151515"/><path d="M73.906 70.469c-8.529 0-15.469 6.94-15.469 15.469 0 .945 3.438.945 3.438 0 0-6.64 5.393-12.032 12.031-12.032.946 0 .946-3.437 0-3.437zM63.594 25.781c6.638 0 12.031-5.392 12.031-12.031S70.232 1.719 63.594 1.719c-6.639 0-12.032 5.392-12.032 12.031s5.393 12.031 12.032 12.031zm0-20.625a8.591 8.591 0 018.593 8.594 8.591 8.591 0 01-8.593 8.594A8.591 8.591 0 0155 13.75a8.591 8.591 0 018.594-8.594z" fill="#151515"/><path d="M60.156 13.75a3.448 3.448 0 013.438-3.438c.945 0 .945-3.437 0-3.437a6.868 6.868 0 00-6.875 6.875c0 .945 3.437.945 3.437 0zM48.125 87.656c0-6.638-5.393-12.031-12.031-12.031-6.639 0-12.032 5.393-12.032 12.031 0 6.639 5.393 12.031 12.032 12.031 6.638 0 12.031-5.392 12.031-12.03zM36.094 96.25a8.591 8.591 0 01-8.594-8.594 8.591 8.591 0 018.594-8.594 8.591 8.591 0 018.593 8.594 8.591 8.591 0 01-8.593 8.594z" fill="#151515"/><path d="M36.094 80.781a6.868 6.868 0 00-6.875 6.875c0 .946 3.437.946 3.437 0a3.448 3.448 0 013.438-3.437c.945 0 .945-3.438 0-3.438zM68.75 44.688c0 8.55 6.918 15.468 15.469 15.468 8.55 0 15.469-6.918 15.469-15.468 0-8.551-6.919-15.47-15.47-15.47-8.529 0-15.468 6.94-15.468 15.47zm15.469-12.032c6.638 0 12.031 5.393 12.031 12.032 0 6.638-5.393 12.03-12.031 12.03-6.639 0-12.031-5.392-12.031-12.03 0-6.64 5.392-12.032 12.03-12.032z" fill="#151515"/><path d="M79.063 44.688a5.144 5.144 0 015.156-5.157c.945 0 .945-3.437 0-3.437a8.591 8.591 0 00-8.594 8.593c0 .946 3.438.946 3.438 0zM41.25 24.063a5.144 5.144 0 005.156-5.157 5.144 5.144 0 00-5.156-5.156 5.144 5.144 0 00-5.156 5.156 5.144 5.144 0 005.156 5.157zm0-6.875c.945 0 1.719.773 1.719 1.718 0 .946-.774 1.719-1.719 1.719a1.724 1.724 0 01-1.719-1.719c0-.945.774-1.718 1.719-1.718zm25.781 17.187a5.144 5.144 0 00-5.156-5.156 5.144 5.144 0 00-5.156 5.156 5.144 5.144 0 005.156 5.156 5.144 5.144 0 005.156-5.156zm-6.875 0c0-.945.774-1.719 1.719-1.719.945 0 1.719.774 1.719 1.719 0 .945-.774 1.719-1.719 1.719a1.724 1.724 0 01-1.719-1.719zm3.438 29.219a5.144 5.144 0 005.156-5.157 5.144 5.144 0 00-5.156-5.156 5.144 5.144 0 00-5.157 5.157 5.144 5.144 0 005.157 5.156zm0-6.875c.945 0 1.718.773 1.718 1.718 0 .946-.773 1.72-1.718 1.72a1.724 1.724 0 01-1.719-1.72c0-.945.773-1.718 1.719-1.718zM18.906 72.188a5.144 5.144 0 00-5.156 5.156 5.144 5.144 0 005.156 5.156 5.144 5.144 0 005.157-5.156 5.144 5.144 0 00-5.157-5.156zm0 6.874a1.724 1.724 0 01-1.718-1.718c0-.946.773-1.719 1.718-1.719.946 0 1.719.773 1.719 1.719 0 .945-.773 1.719-1.719 1.719zm29.219 18.907a5.144 5.144 0 00-5.156 5.156 5.144 5.144 0 005.156 5.156 5.144 5.144 0 005.156-5.156 5.144 5.144 0 00-5.156-5.156zm0 6.875a1.724 1.724 0 01-1.719-1.719c0-.945.774-1.719 1.719-1.719.945 0 1.719.774 1.719 1.719 0 .945-.774 1.719-1.719 1.719z" fill="#151515"/></svg>