<svg width="160" height="138" fill="none" xmlns="http://www.w3.org/2000/svg"><path d="M40 31.474h120l-40 100H0l40-100z" fill="#C43100"/><path d="M121.621 31.413l18.431.014-40.444 99.966-18.465-.014 40.478-99.966z" fill="#AB2B00"/><g clip-path="url(#clip0)" fill="#151515"><path d="M108.246 77.69A5.931 5.931 0 00110 73.484c0-1.574-.606-3.084-1.732-4.184l-8.857-8.8-.043-.043c-.021-.022-.043-.022-.065-.043a3.71 3.71 0 00-2.642-1.1c-.346 0-.67.043-1.017.13a3.69 3.69 0 00-2.664 2.63 6.938 6.938 0 01-1.71 2.955l-.239.238a6.614 6.614 0 01-4.698 1.94 6.614 6.614 0 01-4.7-1.94 6.595 6.595 0 010-9.361l.24-.237a6.821 6.821 0 012.966-1.704 3.69 3.69 0 002.641-2.653c.347-1.316 0-2.696-.974-3.645l-.108-.108-8.857-8.822a6.055 6.055 0 00-3.832-1.725l-.39-.022-.022-.388a5.892 5.892 0 00-1.732-3.818l-8.965-8.93a3.71 3.71 0 00-2.641-1.1c-.347 0-.672.044-1.018.13a3.69 3.69 0 00-2.663 2.632 6.94 6.94 0 01-1.711 2.955l-.238.237a6.614 6.614 0 01-4.7 1.941 6.614 6.614 0 01-4.698-1.941 6.562 6.562 0 01-1.949-4.68c0-1.77.693-3.43 1.95-4.68l.237-.238a6.823 6.823 0 012.967-1.704 3.69 3.69 0 002.642-2.653 3.782 3.782 0 00-.975-3.645l-8.921-8.951a5.907 5.907 0 00-4.2-1.726 5.96 5.96 0 00-4.202 1.726l-8.813 8.778-.52.518-.194-.69a10.067 10.067 0 00-2.555-4.314l-.26-.259a10.06 10.06 0 00-7.146-2.955A9.973 9.973 0 005.868 6.19a9.961 9.961 0 00-2.945 7.118c0 2.696 1.04 5.22 2.945 7.096l.238.237a10.073 10.073 0 004.331 2.545l.715.194-.52.518-8.878 8.843a5.86 5.86 0 00-1.732 4.184 5.86 5.86 0 001.732 4.185l9.333 9.296-.693.194c-1.646.518-3.14 1.38-4.331 2.567l-.238.237c-1.906 1.92-2.967 4.443-2.967 7.118 0 2.674 1.061 5.198 2.967 7.117 1.927 1.898 4.46 2.955 7.145 2.955 2.685 0 5.219-1.057 7.146-2.955l.238-.237a10.12 10.12 0 002.556-4.292l.194-.69 9.333 9.296a6.055 6.055 0 003.833 1.725l.39.022.021.388a5.891 5.891 0 001.732 3.818l8.965 8.93a3.71 3.71 0 002.642 1.1c.346 0 .693-.044 1.017-.152a3.69 3.69 0 002.664-2.631 6.94 6.94 0 011.71-2.955l.239-.237a6.614 6.614 0 014.698-1.942c1.776 0 3.443.69 4.7 1.942a6.562 6.562 0 011.948 4.68c0 1.769-.693 3.43-1.949 4.68l-.238.238a6.822 6.822 0 01-2.966 1.703 3.69 3.69 0 00-2.642 2.653c-.347 1.316 0 2.675.974 3.646l8.965 8.929a5.905 5.905 0 004.2 1.725 5.905 5.905 0 004.201-1.725l8.618-8.584.477-.496.238.647a10.13 10.13 0 002.36 3.731l.239.237a10.06 10.06 0 007.145 2.955 9.974 9.974 0 007.124-2.955 10.029 10.029 0 002.967-7.139c0-2.696-1.061-5.198-2.967-7.096l-.238-.237a9.922 9.922 0 00-3.746-2.351l-.65-.237.498-.475 8.64-8.563zm-71.587-7.678c-.65 0-1.277-.259-1.753-.734l-8.943-8.907a3.71 3.71 0 00-2.642-1.1 4.13 4.13 0 00-1.018.129 3.69 3.69 0 00-2.663 2.631 6.94 6.94 0 01-1.71 2.955l-.239.237a6.614 6.614 0 01-4.699 1.942 6.614 6.614 0 01-4.699-1.942 6.562 6.562 0 01-1.948-4.68 6.56 6.56 0 011.948-4.68l.239-.237a6.822 6.822 0 012.966-1.704 3.69 3.69 0 002.642-2.653 3.769 3.769 0 00-.975-3.645l-8.964-8.93a2.462 2.462 0 01-.736-1.747c0-.647.26-1.273.736-1.747l8.964-8.93a3.808 3.808 0 00.975-3.666 3.683 3.683 0 00-2.664-2.653 6.928 6.928 0 01-2.988-1.704l-.021-.021-.022-.022-.195-.237c-2.577-2.567-2.577-6.751.022-9.34a6.614 6.614 0 014.698-1.94c1.776 0 3.443.69 4.7 1.94l.237.238a6.536 6.536 0 011.711 2.976 3.683 3.683 0 002.664 2.653c.324.086.65.13.996.13 1.017 0 1.97-.389 2.685-1.1l8.964-8.93a2.445 2.445 0 011.754-.733c.671 0 1.278.259 1.754.733l9.333 9.296-.693.216a10.309 10.309 0 00-4.31 2.545l-.237.237a10.019 10.019 0 00-2.967 7.118c0 2.674 1.061 5.198 2.967 7.118a10.06 10.06 0 007.145 2.954c2.707 0 5.24-1.035 7.124-2.954l.238-.238a10.12 10.12 0 002.556-4.292l.194-.69 9.333 9.296c.975.97.975 2.545 0 3.494L60.5 47.278l-.476.497-.239-.648a10.137 10.137 0 00-2.36-3.73l-.238-.238a10.06 10.06 0 00-7.146-2.955 9.974 9.974 0 00-7.124 2.955 10.031 10.031 0 00-2.966 7.14c0 2.695 1.06 5.197 2.966 7.095l.239.237a10.12 10.12 0 003.356 2.222l.108.043.065.086.26.324.238.302-.281.28-8.489 8.434a2.635 2.635 0 01-1.753.69zm59.375 17.492a3.747 3.747 0 002.468 2.696 6.478 6.478 0 012.598 1.596l.239.237a6.565 6.565 0 011.948 4.68c0 1.77-.693 3.43-1.948 4.681a6.615 6.615 0 01-4.7 1.941 6.614 6.614 0 01-4.698-1.941l-.238-.237a6.593 6.593 0 01-1.603-2.588c-.411-1.23-1.407-2.136-2.706-2.46a4 4 0 00-.888-.107c-.996 0-1.949.388-2.685 1.122l-8.748 8.713a2.443 2.443 0 01-1.754.734c-.671 0-1.3-.259-1.754-.734l-8.813-8.778-.52-.518.693-.215a10.31 10.31 0 004.31-2.546l.237-.237a10.019 10.019 0 002.967-7.118c0-2.674-1.061-5.197-2.966-7.117a10.06 10.06 0 00-7.146-2.955 9.973 9.973 0 00-7.124 2.955l-.238.237a10.12 10.12 0 00-2.556 4.292l-.216.69-9.333-9.296a2.426 2.426 0 01-.736-1.747c0-.668.26-1.294.736-1.747l9.831-9.792a1.689 1.689 0 00.108-2.286l-1.84-2.308a1.482 1.482 0 00-.802-.54 6.48 6.48 0 01-2.598-1.595l-.238-.238c-2.599-2.588-2.599-6.794 0-9.36a6.614 6.614 0 014.699-1.942c1.775 0 3.443.69 4.698 1.942l.239.237a6.597 6.597 0 011.602 2.588c.412 1.23 1.408 2.136 2.707 2.459a4 4 0 00.888.108c.996 0 1.948-.388 2.685-1.122l8.748-8.713a2.482 2.482 0 011.754-.734c.65 0 1.277.259 1.754.733l9.332 9.297-.693.215a10.309 10.309 0 00-4.309 2.545l-.238.238a10.031 10.031 0 00-2.966 7.139c0 2.696 1.06 5.198 2.966 7.096 1.906 1.898 4.46 2.933 7.167 2.933a9.99 9.99 0 007.124-2.933l.239-.237a10.12 10.12 0 002.555-4.292l.216-.69 9.333 9.295a2.494 2.494 0 01-.022 3.495l-8.748 8.713a3.694 3.694 0 00-1.017 3.516z"/><path d="M14.248 36.947l.303-.302 5.197-5.069-2.469-2.437-6.712 6.579a1.693 1.693 0 00-.498 1.208c0 .453.173.884.498 1.207l6.648 6.622 2.446-2.437-5.11-5.09-.303-.28zm9.278 9.368l-2.312 2.303 2.312 2.303 2.312-2.303-2.312-2.303z"/></g><defs><clipPath id="clip0"><path fill="#fff" d="M0 0h110v110H0z"/></clipPath></defs></svg>