<svg width="285" height="482" fill="none" xmlns="http://www.w3.org/2000/svg"><path d="M214.64 481v-6.332c0-1.95.016-3.917.048-5.899 0-1.983.016-3.726.048-5.229.256-12.663 3.358-21.824 9.305-27.484 5.948-5.66 14.246-8.49 24.895-8.49 11.128 0 19.761 2.99 25.901 8.97 6.108 5.979 9.162 15.221 9.162 27.724V481H214.64zm9.641-10.648h50.076v-6.284c0-4.765-.815-8.97-2.446-12.615-1.663-3.645-4.349-6.491-8.058-8.538-3.709-2.078-8.666-3.118-14.869-3.118-6.012 0-10.825.96-14.438 2.878-3.614 1.919-6.22 4.669-7.819 8.25-1.63 3.582-2.446 7.867-2.446 12.855v6.572zm-9.641-106.543l40.051 23.839h29.308v11.656h-29.356l-40.003 23.887v-12.663l29.835-17.124-29.835-16.836v-12.759zm0-97.495l69.359 20.385v9.833l-49.165 14.006 49.165 14.198v9.593L214.64 354.57v-11.511l50.076-14.054-50.076-14.102v-8.73l50.076-14.198-50.076-14.102v-11.559zm69.359 1.503l-69.359-24.942V230.26l69.359-24.894v11.703l-17.412 6.188v26.477l17.412 6.331v11.752zm-27.773-20.769v-20.913l-30.218 10.408 30.218 10.505zM214.64 145.48v-11.655h69.359v10.504L233.107 179.2h50.892v11.656H214.64V179.44l49.549-33.96H214.64zm0-31.324V102.5h69.359v11.656H214.64zm69.359-87.286v12.903l-33.816 19.81 12.998 11.08h20.818v12.135H214.64V70.663h33.624L214.64 42.747V29.172l27.053 22.017 42.306-24.319zM214.64 12.656V1h69.359v11.656H214.64zM198.381 481H60.427v-97.629l36.08-23.347v78.528h16.979V347.29l31.836-21.224v112.486h19.101v-116.73l33.958 27.591V481zm0-201.626L60.427 374.881v-53.059l89.14-61.549-89.14-63.672v-50.937l137.954 97.63v36.08zM60.427 132.93l137.954 97.629v-50.937l-89.14-63.671 55.182-38.203v59.427l33.958 23.346V1.343L60.427 98.972v33.958z" stroke="#FF4E13"/><path d="M124.098 260.175L61.956 302.72 1 260.175l60.956-45.382 62.142 45.382z" stroke="#FF4E13"/><path d="M63 280.5L34 259l27-20.5L92.5 259 63 280.5z" stroke="#FF4E13"/></svg>