<svg width="200" height="118" viewBox="0 0 130 77" fill="none" xmlns="http://www.w3.org/2000/svg"><path d="M0 57.86h1.715c.528 0 1.06.005 1.598.014.537 0 1.009.004 1.416.013 3.43.069 5.91.909 7.443 2.52 1.533 1.61 2.3 3.858 2.3 6.742 0 3.014-.81 5.352-2.43 7.015-1.62 1.654-4.122 2.481-7.508 2.481H0V57.861zm2.884 2.612v13.562h1.702c1.29 0 2.429-.22 3.416-.662.988-.45 1.758-1.178 2.313-2.183.563-1.004.844-2.347.844-4.027 0-1.628-.26-2.932-.78-3.91-.519-.979-1.264-1.685-2.234-2.118-.97-.441-2.13-.662-3.481-.662h-1.78zM31.74 57.86l-6.457 10.848v7.937h-3.157v-7.95l-6.47-10.834h3.43l4.638 8.08 4.56-8.08h3.455zm26.404 0l-5.52 18.785H49.96L46.167 63.33l-3.845 13.315h-2.599l-5.482-18.784h3.118l3.806 13.562 3.82-13.562h2.364l3.845 13.562 3.82-13.562h3.13zm-.407 18.785l6.755-18.784h3.417l6.742 18.784h-3.17l-1.675-4.715h-7.171l-1.715 4.715h-3.183zm5.625-7.521h5.664l-2.819-8.185-2.845 8.185zM90.87 57.86h3.157v18.785h-2.845l-9.445-13.783v13.783h-3.156V57.861h3.091l9.198 13.42V57.86zm8.484 0h3.156v18.785h-3.156V57.861zm23.64 18.785h-3.495l-5.365-9.158-3.001 3.52v5.638h-3.287V57.861h3.287v9.106l7.561-9.106h3.676l-5.963 7.326 6.587 11.458zm3.849-18.785H130v18.785h-3.157V57.861z" fill="#151515"/><path d="M0 53.457V16.095h26.441l6.323 9.771H11.496v4.599h24.717l5.748 8.622H11.496v5.173h31.615l-7.473 9.197H0zm54.607 0L28.741 16.095h14.37l16.67 24.142 17.244-24.142H90.82L64.38 53.457h-9.772zm39.662-37.362L67.828 53.457h13.795l17.244-24.142 10.347 14.945H93.119l-6.323 9.197h43.111l-26.441-37.362h-9.197z" fill="#C43100"/><path d="M68.855 16.524l-8.98 12.295-8.418-12.296 8.418-12.06 8.98 12.06z" fill="#151515" stroke="#C43100" stroke-width="5.22"/></svg>