<svg width="102" height="64" viewBox="0 0 102 64" fill="none" xmlns="http://www.w3.org/2000/svg">
<path d="M25.5 0H102L76.5 64H0L25.5 0Z" fill="#C43100"/>
<path d="M73.6829 0H88.1207L62.2322 63.9756H47.7943L73.6829 0Z" fill="#AB2B00"/>
<path d="M19.3915 49.2279C18.9268 49.2279 18.4804 49.1496 18.0523 48.993C17.6274 48.8363 17.2706 48.6031 16.9819 48.2932C16.6931 47.9833 16.5205 47.5951 16.4641 47.1287H17.7187C17.7984 47.4952 17.9909 47.7751 18.2962 47.9683C18.6016 48.1583 18.965 48.2532 19.3865 48.2532C19.8313 48.2532 20.208 48.1649 20.5167 47.9883C20.8253 47.8117 20.9797 47.5552 20.9797 47.2186C20.9797 46.9221 20.8668 46.6938 20.6411 46.5339C20.4154 46.3706 20.1184 46.249 19.75 46.169L18.4257 45.8791C17.888 45.7692 17.4631 45.5559 17.1512 45.2394C16.8425 44.9228 16.6848 44.5013 16.6782 43.9749C16.6749 43.5384 16.7894 43.1585 17.0217 42.8353C17.254 42.5088 17.5727 42.2572 17.9776 42.0806C18.3858 41.9007 18.8455 41.8107 19.3567 41.8107C19.9541 41.8107 20.4569 41.909 20.8652 42.1056C21.2734 42.3022 21.5821 42.5637 21.7912 42.8903C22.0036 43.2135 22.1131 43.57 22.1198 43.9599H20.895C20.8519 43.53 20.6859 43.2301 20.3972 43.0602C20.1117 42.8869 19.7699 42.8003 19.3716 42.8003C18.9733 42.8003 18.6364 42.8919 18.3609 43.0752C18.0888 43.2585 17.9527 43.5134 17.9527 43.8399C17.9527 44.0732 18.029 44.2631 18.1817 44.4097C18.3377 44.553 18.6281 44.6746 19.053 44.7746L20.3474 45.0644C20.749 45.1444 21.0726 45.266 21.3182 45.4293C21.5638 45.5892 21.7497 45.7708 21.8758 45.9741C22.0053 46.1774 22.0916 46.3873 22.1347 46.6039C22.1812 46.8171 22.2044 47.0187 22.2044 47.2086C22.2044 47.5852 22.0899 47.9267 21.8609 48.2332C21.6319 48.5365 21.3066 48.778 20.8851 48.958C20.4636 49.1379 19.9657 49.2279 19.3915 49.2279Z" fill="white"/>
<path d="M23.5898 49.1279V41.9007H26.1439C26.6616 41.9007 27.1246 41.9906 27.5329 42.1706C27.9411 42.3471 28.2631 42.6087 28.4987 42.9553C28.7377 43.3018 28.8572 43.7283 28.8572 44.2348C28.8572 44.7112 28.751 45.1194 28.5385 45.4593C28.3261 45.7992 28.0274 46.0591 27.6424 46.239C27.2607 46.4189 26.8143 46.5089 26.3032 46.5089H24.8196V49.1279H23.5898ZM24.8096 45.5343H26.2733C26.6948 45.5343 27.0383 45.4077 27.3039 45.1544C27.5727 44.9012 27.7071 44.5713 27.7071 44.1648C27.7071 43.7516 27.5677 43.4317 27.2889 43.2052C27.0101 42.9752 26.66 42.8603 26.2384 42.8603H24.8096V45.5343Z" fill="white"/>
<path d="M35.3944 49.1279H34.1298L32.8901 46.194H31.2173V49.1279H30.0075V41.9007H32.93C33.7564 41.9007 34.3654 42.0906 34.7571 42.4704C35.1487 42.847 35.3446 43.3484 35.3446 43.9749C35.3446 44.3614 35.2815 44.6863 35.1554 44.9495C35.0293 45.2094 34.865 45.4226 34.6625 45.5892C34.4634 45.7525 34.2493 45.8858 34.0203 45.9891L35.3944 49.1279ZM32.6561 45.2294C33.1142 45.2294 33.471 45.1228 33.7265 44.9095C33.9854 44.6963 34.1149 44.3997 34.1149 44.0198C34.1149 43.6467 33.9954 43.3584 33.7564 43.1552C33.5174 42.9519 33.2021 42.8503 32.8105 42.8503H31.2173V45.2294H32.6561Z" fill="white"/>
<path d="M36.5546 49.1279V48.5081L40.3383 42.9353H36.7637V41.9007H42.0559V42.4904L38.2274 48.0833H42.0211V49.1279H36.5546Z" fill="white"/>
<path d="M43.3583 49.1279V41.9007H48.1178L48.1128 42.9453H44.578V44.9695H47.6996V45.9991H44.5681V48.0683L48.1875 48.0733V49.1279H43.3583Z" fill="white"/>
<path d="M49.7176 41.9007C49.7475 41.9007 49.8338 41.9007 49.9765 41.9007C50.1225 41.9007 50.2968 41.9007 50.4993 41.9007C50.7017 41.9007 50.9058 41.9023 51.1116 41.9057C51.3174 41.9057 51.4983 41.9073 51.6543 41.9106C52.9686 41.9373 53.9195 42.2605 54.507 42.8803C55.0945 43.5 55.3882 44.3647 55.3882 45.4743C55.3882 46.6338 55.0779 47.5335 54.4572 48.1733C53.8366 48.8097 52.8774 49.1279 51.5796 49.1279H49.7176V41.9007ZM50.9473 42.9053V48.1233H51.5995C52.0941 48.1233 52.5305 48.0383 52.9089 47.8684C53.2873 47.6951 53.5827 47.4152 53.7951 47.0287C54.0108 46.6422 54.1187 46.1257 54.1187 45.4793C54.1187 44.8529 54.0191 44.3514 53.82 43.9749C53.6208 43.5983 53.3354 43.3268 52.9636 43.1602C52.5919 42.9902 52.1472 42.9053 51.6294 42.9053H50.9473Z" fill="white"/>
<path d="M55.9332 49.1279L58.5221 41.9007H59.8314L62.4153 49.1279H61.2005L60.5583 47.3136H57.8101L57.153 49.1279H55.9332ZM58.0889 46.234H60.2596L59.1792 43.0852L58.0889 46.234Z" fill="white"/>
<path d="M63.3825 49.1279V48.5081L67.1662 42.9353H63.5916V41.9007H68.8838V42.4904L65.0553 48.0833H68.849V49.1279H63.3825ZM65.6975 41.076V40.0264H66.8774V41.076H65.6975Z" fill="white"/>
<path d="M75.6316 41.9007L73.1572 46.0741V49.1279H71.9474V46.0691L69.4681 41.9007H70.7824L72.5598 45.0095L74.3073 41.9007H75.6316Z" fill="white"/>
<path d="M32.2014 19.6888V16.6799H44.0006V19.6888H39.8186V31.1344H36.4133V19.6888H32.2014Z" fill="white"/>
<path d="M52.0261 31.3343C50.6321 31.3343 49.424 31.0344 48.4017 30.4347C47.3861 29.8349 46.5994 28.9819 46.0418 27.8756C45.4842 26.7694 45.2054 25.4566 45.2054 23.9371C45.2054 22.4111 45.4876 21.0916 46.0518 19.9786C46.6227 18.8657 47.4159 18.0061 48.4316 17.3996C49.4538 16.7865 50.652 16.48 52.0261 16.48C53.3935 16.48 54.5818 16.7832 55.5907 17.3896C56.6064 17.9961 57.393 18.8591 57.9506 19.9786C58.5148 21.0916 58.7969 22.4111 58.7969 23.9371C58.7969 25.4499 58.5215 26.7594 57.9705 27.8656C57.4195 28.9719 56.6362 29.8282 55.6206 30.4347C54.605 31.0344 53.4068 31.3343 52.0261 31.3343ZM52.0261 28.5754C52.9488 28.5754 53.6923 28.2255 54.2565 27.5258C54.8274 26.826 55.1128 25.6465 55.1128 23.9871C55.1128 22.2811 54.8274 21.0649 54.2565 20.3385C53.6923 19.6055 52.9488 19.2389 52.0261 19.2389C51.1034 19.2389 50.3533 19.6055 49.7758 20.3385C49.2049 21.0649 48.9195 22.2811 48.9195 23.9871C48.9195 25.6532 49.2049 26.836 49.7758 27.5358C50.3533 28.2288 51.1034 28.5754 52.0261 28.5754Z" fill="white"/>
<path d="M61.1854 31.1344V16.6799H66.6917C67.7405 16.6799 68.6865 16.8665 69.5295 17.2397C70.3725 17.6129 71.0364 18.1593 71.5209 18.8791C72.0121 19.5921 72.2578 20.4651 72.2578 21.4981C72.2578 22.9309 71.7931 24.0504 70.8638 24.8568C69.9411 25.6631 68.6964 26.0663 67.1298 26.0663H64.5908V31.1344H61.1854ZM64.5609 23.4873H67.0303C67.6343 23.4873 68.1322 23.2741 68.5238 22.8476C68.9221 22.4144 69.1213 21.9046 69.1213 21.3181C69.1213 20.7117 68.9088 20.2152 68.484 19.8287C68.0658 19.4355 67.5713 19.2389 67.0004 19.2389H64.5609V23.4873Z" fill="white"/>
</svg>
