<svg width="50" height="50" viewBox="0 0 50 50" fill="none" xmlns="http://www.w3.org/2000/svg">
<path d="M38.6009 25.9144C38.0961 25.4095 37.425 25.1315 36.711 25.1315C35.997 25.1315 35.3258 25.4095 34.8211 25.9143C34.3164 26.4192 34.0382 27.0904 34.0382 27.8043C34.0382 28.5181 34.3163 29.1893 34.8211 29.6942C35.3421 30.2152 36.0266 30.4758 36.711 30.4758C37.3955 30.4758 38.0798 30.2152 38.6008 29.6942C39.1056 29.1893 39.3837 28.5181 39.3837 27.8043C39.3837 27.0904 39.1057 26.4192 38.6009 25.9144ZM37.5946 28.6878C37.1073 29.1752 36.3146 29.1752 35.8274 28.6878C35.5914 28.4517 35.4614 28.138 35.4614 27.8043C35.4614 27.4706 35.5914 27.1567 35.8275 26.9207C36.0635 26.6846 36.3773 26.5547 36.711 26.5547C37.0447 26.5547 37.3585 26.6846 37.5946 26.9208C37.8306 27.1568 37.9606 27.4706 37.9606 27.8043C37.9606 28.138 37.8306 28.4518 37.5946 28.6878Z" fill="#C43100"/>
<path d="M38.6009 32.9382C37.5588 31.8961 35.8632 31.896 34.8211 32.9382C34.3163 33.443 34.0382 34.1142 34.0382 34.8281C34.0382 35.542 34.3163 36.2133 34.8212 36.7181C35.3422 37.2391 36.0266 37.4997 36.711 37.4997C37.3955 37.4997 38.0799 37.2391 38.6009 36.7181C39.1056 36.2134 39.3838 35.542 39.3838 34.8281C39.3838 34.1142 39.1057 33.443 38.6009 32.9382ZM37.5946 35.7117C37.1075 36.1991 36.3147 36.1989 35.8275 35.7118C35.5915 35.4758 35.4614 35.1619 35.4614 34.8281C35.4614 34.4944 35.5914 34.1805 35.8274 33.9446C36.0711 33.701 36.391 33.5792 36.711 33.5792C37.031 33.5792 37.351 33.701 37.5946 33.9446C37.8306 34.1806 37.9606 34.4944 37.9606 34.8281C37.9606 35.1619 37.8306 35.4758 37.5946 35.7117Z" fill="#C43100"/>
<path d="M47.3226 14.2333C45.8462 14.2333 44.645 15.4345 44.645 16.9108V20.3108H43.2138C43.1185 18.6205 42.3578 17.0241 41.0927 15.8859C39.7542 14.6815 37.9653 14.0934 36.1745 14.2644V13.4146H36.1973C36.9891 13.4146 37.6334 12.7703 37.6334 11.9786V7.04885C37.6334 6.25706 36.9891 5.61292 36.1973 5.61292H34.7286C33.9368 5.61292 33.2925 6.25706 33.2925 7.04885V11.9786C33.2925 12.7704 33.9368 13.4147 34.7286 13.4147H34.7513V14.3933L32.446 14.6033C32.0546 14.6388 31.7662 14.985 31.8018 15.3764C31.8375 15.7678 32.183 16.057 32.575 16.0205L35.534 15.7511C35.5349 15.751 35.5358 15.7509 35.5368 15.7508L36.2487 15.686C36.2522 15.6857 36.2556 15.6853 36.2591 15.685C37.6704 15.5358 39.0855 15.9944 40.1408 16.9439C41.1961 17.8933 41.8013 19.252 41.8013 20.6715V39.3199H31.2512L32.5205 32.1887C32.7916 30.6926 32.4241 29.1367 31.5124 27.9199C30.6006 26.7032 29.2106 25.9134 27.6986 25.7535C27.6937 25.7529 27.6887 25.7525 27.6838 25.7521L9.00519 24.1669L9.31877 18.1383L28.1723 16.4214C28.5637 16.3859 28.8521 16.0397 28.8165 15.6483C28.7808 15.2568 28.4345 14.9666 28.0433 15.0041L9.39348 16.7024L9.40051 16.5664C9.42141 16.1639 9.27433 15.7654 8.99679 15.4732C8.71935 15.1809 8.32902 15.0132 7.92609 15.0132H7.91886V14.5327C7.91886 13.587 7.14943 12.8175 6.20372 12.8175C5.25792 12.8175 4.48849 13.587 4.48849 14.5327V15.0132H4.29806C3.89503 15.0132 3.50479 15.1808 3.22735 15.4732C2.94981 15.7654 2.80274 16.1639 2.82364 16.5664L3.11075 22.0878C3.13116 22.4803 3.46534 22.7798 3.85831 22.7615C4.25079 22.741 4.55235 22.4063 4.53194 22.0138L4.24483 16.4923C4.24454 16.4867 4.24366 16.4695 4.25938 16.4529C4.27511 16.4363 4.29229 16.4363 4.29796 16.4363H7.92589C7.93156 16.4363 7.94875 16.4363 7.96457 16.4529C7.98029 16.4696 7.97941 16.4867 7.97912 16.4923L7.4007 27.6146C7.39923 27.6429 7.37589 27.6652 7.34748 27.6652H4.87647C4.84815 27.6652 4.82472 27.6429 4.82325 27.6146L4.76339 26.4624C4.74298 26.0699 4.40704 25.7692 4.01583 25.7887C3.62335 25.8092 3.32169 26.1439 3.34219 26.5364L3.40206 27.6886C3.42608 28.1518 3.66241 28.5545 4.0128 28.8078V30.5311C4.0128 31.4389 4.5922 32.2138 5.4005 32.506V36.2222C5.4005 36.6153 5.71905 36.9339 6.11212 36.9339C6.50519 36.9339 6.82374 36.6153 6.82374 36.2222V32.5061C7.63205 32.2139 8.21144 31.4391 8.21144 30.5312V28.8079C8.56183 28.5546 8.79806 28.1518 8.82209 27.6887L8.93127 25.5888L27.5559 27.1694C28.6893 27.2913 29.6897 27.8606 30.3735 28.7732C31.0588 29.6877 31.3239 30.8105 31.1198 31.9371L29.8058 39.3198H2.21289C0.992678 39.3199 0 40.3125 0 41.5327V42.1736C0 43.3937 0.992678 44.3864 2.21289 44.3864H45.1137C46.3339 44.3864 47.3266 43.3937 47.3266 42.1736V41.5327C47.3266 40.3126 46.3339 39.3199 45.1137 39.3199H43.2244V24.3995H44.6449V27.7995C44.6449 29.2759 45.8461 30.477 47.3225 30.477C48.7989 30.477 50 29.2758 50 27.7995V16.9109C50.0001 15.4345 48.7989 14.2333 47.3226 14.2333ZM34.7286 11.9915C34.7215 11.9915 34.7157 11.9858 34.7157 11.9786V7.04885C34.7157 7.04182 34.7215 7.03606 34.7286 7.03606H36.1973C36.2045 7.03606 36.2102 7.04182 36.2102 7.04885V11.9786C36.2102 11.9858 36.2045 11.9915 36.1973 11.9915H34.7286ZM6.49572 15.0133H5.91163V14.5328C5.91163 14.3718 6.04269 14.2408 6.20372 14.2408C6.36466 14.2408 6.49572 14.3718 6.49572 14.5328V15.0133ZM6.7882 30.5312C6.7882 30.9041 6.48488 31.2073 6.11202 31.2073C5.73927 31.2073 5.43595 30.9041 5.43595 30.5312V29.0885H6.7882V30.5312ZM45.1137 40.743C45.5491 40.743 45.9034 41.0972 45.9034 41.5327V42.1736C45.9034 42.6091 45.5491 42.9633 45.1137 42.9633H2.21289C1.77744 42.9633 1.42315 42.6091 1.42315 42.1736V41.5327C1.42315 41.0972 1.77744 40.743 2.21289 40.743H45.1137ZM44.645 22.9763H43.2245V21.734H44.645V22.9763ZM48.577 27.7995C48.577 28.4912 48.0143 29.0539 47.3226 29.0539C46.6309 29.0539 46.0682 28.4911 46.0682 27.7995V16.9109C46.0682 16.2192 46.6309 15.6566 47.3226 15.6566C48.0143 15.6566 48.577 16.2193 48.577 16.9109V27.7995Z" fill="#C43100"/>
</svg>
