<svg width="50" height="50" viewBox="0 0 50 50" fill="none" xmlns="http://www.w3.org/2000/svg">
<g clip-path="url(#clip0)">
<path d="M28.1531 30.8048C28.5577 30.8048 28.8856 30.4769 28.8856 30.0724V23.1643L31.0924 25.7223C31.2372 25.8902 31.4416 25.9763 31.6473 25.9763C31.8167 25.9763 31.987 25.9178 32.1254 25.7985C32.4317 25.5342 32.4657 25.0718 32.2015 24.7655L28.7077 20.7158C28.5686 20.5544 28.3661 20.4618 28.1531 20.4618C27.9402 20.4618 27.7377 20.5545 27.5986 20.7158L24.1049 24.7655C23.8407 25.0717 23.8748 25.5342 24.181 25.7985C24.4871 26.0626 24.9496 26.0288 25.214 25.7223L27.4207 23.1644V30.0724C27.4207 30.4769 27.7486 30.8048 28.1531 30.8048Z" fill="#C43100"/>
<path d="M23.6321 35.8866C23.6321 36.2911 23.9599 36.619 24.3645 36.619H31.9418C32.3464 36.619 32.6742 36.2911 32.6742 35.8866C32.6742 35.4821 32.3464 35.1542 31.9418 35.1542H24.3645C23.9599 35.1542 23.6321 35.4821 23.6321 35.8866Z" fill="#C43100"/>
<path d="M45.0865 9.25901L42.1588 12.1868L40.0803 10.1082C39.7941 9.82219 39.3304 9.82219 39.0444 10.1082C38.7584 10.3943 38.7584 10.858 39.0444 11.144L41.6409 13.7405C41.784 13.8834 41.9715 13.955 42.1589 13.955C42.3463 13.955 42.5338 13.8835 42.6768 13.7405L46.1225 10.2948C46.4086 10.0087 46.4086 9.54495 46.1225 9.25901C45.8362 8.97297 45.3725 8.97297 45.0865 9.25901Z" fill="#C43100"/>
<path d="M42.5833 3.91565C38.8683 3.91565 35.783 6.66135 35.2489 10.2299H13.1294C12.3685 10.2299 11.7493 10.849 11.7493 11.6099V23.3174L9.40315 20.9711C8.90198 20.47 8.08684 20.4699 7.58528 20.9711L4.54983 24.0066C4.2637 24.2926 4.2637 24.7563 4.54973 25.0423C4.83577 25.3283 5.29954 25.3283 5.58547 25.0423L6.06995 24.5579L8.29202 26.7801C8.32376 26.8118 8.35745 26.8487 8.39299 26.8871C8.63479 27.149 9.00022 27.5447 9.5346 27.5614C9.54211 27.5615 9.54973 27.5616 9.55735 27.5616H17.3674C17.7777 27.5616 18.1115 27.8954 18.1115 28.3057C18.1115 28.7159 17.7777 29.0497 17.3674 29.0497H15.1151C14.8189 29.0497 14.5517 29.2281 14.4384 29.5019C14.325 29.7756 14.3876 30.0906 14.5971 30.3L22.0541 37.7571C22.3472 38.0501 22.3719 38.5234 22.1091 38.812C21.97 38.9649 21.7804 39.0517 21.5751 39.0565C21.3668 39.0618 21.1766 38.9839 21.0315 38.8388C21.0312 38.8385 21.0309 38.8383 21.0306 38.838L15.1849 32.9922C14.8989 32.7062 14.4352 32.7062 14.149 32.9922C13.863 33.2782 13.863 33.742 14.149 34.028L22.1243 42.0032C22.4168 42.2963 22.4414 42.7692 22.1788 43.0576C22.0398 43.2105 21.8502 43.2973 21.6449 43.3021C21.4395 43.3065 21.2463 43.2296 21.1011 43.0844L13.0969 35.0802C12.8109 34.7942 12.3472 34.7941 12.0611 35.0802C11.775 35.3662 11.775 35.83 12.0611 36.1159L18.6736 42.7284C18.6794 42.7343 18.6852 42.7414 18.691 42.7477C18.8243 42.8905 18.8956 43.0754 18.8909 43.272C18.8861 43.4772 18.7993 43.6668 18.6465 43.8059C18.3578 44.0684 17.885 44.044 17.592 43.7514L11.0088 37.1682C10.7227 36.8822 10.259 36.8822 9.97297 37.1682C9.68694 37.4542 9.68694 37.918 9.97297 38.2039L15.1231 43.354C15.123 43.3538 15.1232 43.3541 15.1231 43.354C15.2682 43.4992 15.3461 43.6929 15.3413 43.8984C15.3364 44.1036 15.2497 44.2932 15.0969 44.4323C14.8083 44.6949 14.3348 44.6702 14.0418 44.3773L5.78938 36.1249C4.83323 35.1688 4.29563 33.8972 4.27551 32.5448C4.26868 32.0743 4.07776 31.6281 3.73792 31.2884L1.5385 29.0895L3.16868 27.4593C3.45481 27.1733 3.45481 26.7096 3.16877 26.4236C2.88274 26.1375 2.41897 26.1375 2.13303 26.4236L0.375806 28.1806C-0.125269 28.6818 -0.125269 29.4971 0.375806 29.9984L2.70217 32.3247C2.76995 32.3926 2.80969 32.4807 2.81086 32.5667C2.83665 34.3025 3.52659 35.9341 4.75354 37.1612L13.006 45.4135C13.4512 45.8587 14.0326 46.0835 14.611 46.0835C15.1397 46.0835 15.6658 45.8955 16.0828 45.516C16.3011 45.3174 16.4739 45.0835 16.5957 44.8262C17.4498 45.6405 18.7731 45.6719 19.6325 44.8897C19.8514 44.6905 20.0245 44.4559 20.1465 44.1977C20.5635 44.574 21.1153 44.7803 21.6795 44.767C22.2889 44.7528 22.8511 44.4959 23.2623 44.0441C23.5296 43.7504 23.6996 43.4023 23.7781 43.0375H43.177C43.9379 43.0375 44.5571 42.4185 44.5571 41.6575V36.6192C44.5571 36.2147 44.2292 35.8867 43.8246 35.8867C43.42 35.8867 43.0922 36.2147 43.0922 36.6192V41.5727H23.5926C23.4846 41.3547 23.3417 41.1492 23.1598 40.9673L22.5033 40.311C22.7605 40.1891 22.9942 40.0164 23.1927 39.7983C23.9873 38.9251 23.9423 37.5737 23.0902 36.7215L16.8833 30.5148H17.3675C18.5856 30.5148 19.5764 29.5239 19.5764 28.3059C19.5764 27.0879 18.5856 26.097 17.3675 26.097H13.2142V11.6948H23.2853V17.2319C23.2853 17.9928 23.9043 18.6118 24.6653 18.6118H31.6411C32.4021 18.6118 33.0211 17.9928 33.0211 17.2319V16.3066C33.0211 15.9021 32.6933 15.5741 32.2887 15.5741C31.8841 15.5741 31.5563 15.9021 31.5563 16.3066V17.147H24.7502V11.6947H31.5563V12.8886C31.5563 13.2931 31.8841 13.621 32.2887 13.621C32.6933 13.621 33.0211 13.2931 33.0211 12.8886V11.6947H35.1757C35.3654 15.6166 38.6152 18.749 42.5833 18.749C42.7545 18.749 42.9239 18.7411 43.0921 18.7296V33.201C43.0921 33.6055 43.4199 33.9334 43.8245 33.9334C44.2291 33.9334 44.557 33.6055 44.557 33.201V18.4803C47.6912 17.6139 50 14.7386 50 11.3324C50 7.2428 46.673 3.91565 42.5833 3.91565ZM11.7493 26.097H9.66946C9.61028 26.0461 9.52493 25.9537 9.46926 25.8936C9.41956 25.8398 9.37219 25.7888 9.32795 25.7445L7.10579 23.5223L8.49417 22.1339L10.7164 24.3562C10.7482 24.3879 10.7819 24.4247 10.8175 24.4633C11.0262 24.6893 11.3273 25.0144 11.7493 25.11V26.097ZM42.5833 17.2843C39.3014 17.2843 36.6314 14.6143 36.6314 11.3324C36.6314 8.05051 39.3014 5.38049 42.5833 5.38049C45.8652 5.38049 48.5352 8.05051 48.5352 11.3324C48.5352 14.6144 45.8652 17.2843 42.5833 17.2843Z" fill="#C43100"/>
</g>
<defs>
<clipPath id="clip0">
<rect width="50" height="50" fill="white" transform="translate(0 -0.000366211)"/>
</clipPath>
</defs>
</svg>
