<svg width="50" height="50" viewBox="0 0 50 50" fill="none" xmlns="http://www.w3.org/2000/svg">
<g clip-path="url(#clip0)">
<path d="M25 4.61818C20.9022 4.61818 17.0633 6.22804 14.1893 9.15265L14.1462 9.1967C13.8642 9.48537 13.8694 9.94797 14.158 10.2301C14.4466 10.5121 14.9093 10.5069 15.1914 10.2183L15.233 10.1757C17.8287 7.53429 21.2974 6.0797 25 6.0797C32.5502 6.0797 38.6928 12.2222 38.6928 19.7725C38.6928 27.3228 32.5502 33.4652 25 33.4652C17.4498 33.4652 11.3072 27.3227 11.3072 19.7725C11.3072 17.3059 11.9701 14.8882 13.2242 12.7808C13.4306 12.4339 13.3168 11.9855 12.9699 11.7791C12.623 11.5728 12.1746 11.6866 11.9683 12.0334C10.5797 14.3668 9.84572 17.043 9.84572 19.7726C9.84572 28.1286 16.6439 34.9269 24.9999 34.9269C33.356 34.9269 40.1541 28.1286 40.1541 19.7726C40.1541 11.4165 33.3561 4.61818 25 4.61818Z" fill="#C43100"/>
<path d="M43.5092 16.7313C43.1127 16.1409 42.7383 15.5833 42.5976 15.0571C42.4475 14.4954 42.4923 13.8035 42.5398 13.071C42.6107 11.9783 42.6841 10.8484 42.1259 9.88372C41.5591 8.90403 40.5352 8.4012 39.5449 7.91487C38.8938 7.59514 38.2788 7.29309 37.8791 6.89338C37.4794 6.49358 37.1773 5.87864 36.8575 5.22747C36.3713 4.23733 35.8685 3.2134 34.8887 2.64661C33.924 2.0885 32.7941 2.16184 31.7014 2.23264C30.9688 2.2802 30.2771 2.32512 29.7152 2.17493C29.189 2.0342 28.6313 1.65979 28.041 1.26331C27.1593 0.67102 26.1596 -0.000366211 25 -0.000366211C23.8404 -0.000366211 22.8407 0.671021 21.9587 1.2634C21.3684 1.65989 20.8108 2.0343 20.2846 2.17493C19.7229 2.32512 19.0311 2.2802 18.2985 2.23264C17.2058 2.16184 16.076 2.0885 15.1112 2.64661C14.1315 3.2134 13.6287 4.23733 13.1424 5.22747C12.8227 5.87864 12.5206 6.49368 12.1208 6.89338C11.7211 7.29309 11.1062 7.59514 10.455 7.91487C9.46475 8.4011 8.44092 8.90403 7.87402 9.88372C7.31582 10.8484 7.38916 11.9783 7.46006 13.0711C7.50762 13.8035 7.55244 14.4954 7.40234 15.0571C7.26162 15.5833 6.88721 16.1409 6.49072 16.7313C5.89844 17.6133 5.22705 18.6129 5.22705 19.7725C5.22705 20.9321 5.89834 21.9318 6.49072 22.8138C6.88711 23.4041 7.26162 23.9617 7.40225 24.488C7.55234 25.0496 7.50752 25.7415 7.45996 26.474C7.38906 27.5667 7.31572 28.6966 7.87393 29.6614C8.44072 30.641 9.46465 31.144 10.4549 31.6302C11.106 31.9499 11.721 32.252 12.1207 32.6517C12.4913 33.0223 12.778 33.5785 13.0727 34.1764L7.76494 43.941C7.53721 44.36 7.54375 44.8566 7.78252 45.2693C8.02129 45.6821 8.44834 45.9353 8.925 45.9468L12.9954 46.0453L15.2918 49.4075C15.5474 49.7818 15.9618 49.9996 16.411 49.9996C16.4345 49.9996 16.4581 49.999 16.4817 49.9979C16.9579 49.9738 17.3781 49.7092 17.6059 49.2903L23.1791 39.0372C23.74 39.3308 24.3443 39.5454 24.9999 39.5454C25.6554 39.5454 26.2598 39.3308 26.8207 39.0372L32.3939 49.2904C32.6217 49.7093 33.0419 49.9739 33.5181 49.998C33.5418 49.9991 33.5653 49.9997 33.5888 49.9997C34.038 49.9997 34.4524 49.7819 34.708 49.4076L37.0044 46.0454L41.0747 45.9469C41.5514 45.9354 41.9785 45.6821 42.2172 45.2694C42.456 44.8566 42.4625 44.3601 42.2348 43.9411L40.2938 40.3703C40.1011 40.0156 39.6574 39.8843 39.3028 40.0773C38.9482 40.27 38.8171 40.7137 39.0098 41.0683L40.8696 44.4899L36.9157 44.5856C36.48 44.5961 36.0731 44.8173 35.8274 45.1772L33.5968 48.4431L28.0647 38.2657C28.6463 37.8752 29.1961 37.5088 29.7152 37.37C30.2769 37.2199 30.9688 37.2648 31.7013 37.3123C32.7941 37.3832 33.9239 37.4566 34.8886 36.8984C35.3992 36.603 35.7797 36.1828 36.0964 35.7085L37.402 38.1105C37.5946 38.4651 38.0381 38.5962 38.393 38.4035C38.7476 38.2108 38.8787 37.7671 38.686 37.4125L36.927 34.1763C37.2216 33.5784 37.5083 33.0223 37.8789 32.6517C38.2786 32.252 38.8936 31.9499 39.5447 31.6302C40.535 31.144 41.5588 30.641 42.1257 29.6614C42.6839 28.6967 42.6105 27.5667 42.5396 26.4739C42.4921 25.7415 42.4473 25.0496 42.5974 24.4879C42.7381 23.9616 43.1125 23.4041 43.5089 22.8138C44.1012 21.9318 44.7726 20.9321 44.7726 19.7725C44.7729 18.6129 44.1015 17.6132 43.5092 16.7313ZM16.403 48.4431L14.1725 45.1773C13.9267 44.8174 13.5198 44.5962 13.0841 44.5857L9.13027 44.49L13.9034 35.7087C14.2201 36.1829 14.6006 36.6031 15.1112 36.8985C16.076 37.4566 17.2061 37.3833 18.2985 37.3124C19.0311 37.2649 19.7229 37.22 20.2846 37.3701C20.8038 37.5089 21.3536 37.8754 21.9351 38.2658L16.403 48.4431ZM42.2958 21.9989C41.8501 22.6627 41.3892 23.349 41.1856 24.1106C40.9734 24.9043 41.0283 25.7504 41.0814 26.5686C41.1408 27.484 41.1969 28.3487 40.8608 28.9294C40.5163 29.5248 39.7315 29.9103 38.9007 30.3184C38.1712 30.6766 37.4169 31.047 36.8457 31.6183C36.2744 32.1895 35.904 32.9439 35.5457 33.6734C35.1377 34.5042 34.7522 35.2889 34.1569 35.6334C33.5761 35.9695 32.7116 35.9133 31.7961 35.854C30.9778 35.8009 30.1318 35.7461 29.3381 35.9582C28.5767 36.1618 27.8903 36.6227 27.2266 37.0685C26.4489 37.5907 25.7145 38.084 25 38.084C24.2856 38.084 23.5512 37.5907 22.7735 37.0685C22.1098 36.6228 21.4235 36.1618 20.6619 35.9582C20.2262 35.8417 19.7748 35.8058 19.3208 35.8058C18.9478 35.8058 18.5729 35.8301 18.2039 35.8541C17.2884 35.9134 16.4238 35.9697 15.8431 35.6335C15.2477 35.289 14.8622 34.5042 14.4542 33.6734C14.096 32.9439 13.7255 32.1896 13.1542 31.6183C12.583 31.0471 11.8287 30.6766 11.0992 30.3184C10.2684 29.9104 9.48359 29.5249 9.13906 28.9294C8.80303 28.3487 8.85908 27.484 8.91846 26.5687C8.97158 25.7505 9.02646 24.9044 8.81426 24.1107C8.61074 23.3491 8.1498 22.6627 7.704 21.999C7.18184 21.2214 6.68857 20.4869 6.68857 19.7726C6.68857 19.0582 7.18184 18.3238 7.704 17.5461C8.1498 16.8823 8.61064 16.196 8.81426 15.4345C9.02646 14.6407 8.97158 13.7947 8.91846 12.9765C8.85908 12.0611 8.80303 11.1964 9.13906 10.6156C9.48359 10.0202 10.2684 9.63479 11.0992 9.22668C11.8287 8.86848 12.583 8.49797 13.1542 7.92678C13.7254 7.35559 14.0959 6.6012 14.4542 5.8717C14.8622 5.04094 15.2477 4.25618 15.8431 3.91165C16.4238 3.57571 17.2884 3.63176 18.2039 3.69104C19.0221 3.74416 19.8681 3.79905 20.6619 3.58684C21.4233 3.38323 22.1097 2.92239 22.7734 2.47659C23.5511 1.95432 24.2855 1.46106 25 1.46106C25.7144 1.46106 26.4488 1.95432 27.2265 2.47649C27.8902 2.92229 28.5766 3.38323 29.3381 3.58674C30.1318 3.79895 30.978 3.74407 31.7962 3.69094C32.7116 3.63166 33.5763 3.57551 34.1569 3.91155C34.7523 4.25608 35.1378 5.04084 35.5458 5.87161C35.904 6.6011 36.2745 7.3554 36.8458 7.92668C37.417 8.49788 38.1714 8.86838 38.9008 9.22659C39.7316 9.63459 40.5163 10.02 40.8608 10.6155C41.1969 11.1962 41.1408 12.0609 41.0814 12.9762C41.0283 13.7944 40.9734 14.6405 41.1856 15.4342C41.3892 16.1957 41.8501 16.8822 42.2959 17.5458C42.8181 18.3235 43.3113 19.0579 43.3113 19.7723C43.3113 20.4868 42.8181 21.2213 42.2958 21.9989Z" fill="#C43100"/>
<path d="M35.0351 19.0878C35.5288 18.6065 35.7031 17.9001 35.49 17.2444C35.2769 16.5886 34.7207 16.1196 34.0384 16.0204L29.0825 15.3003C28.9728 15.2844 28.8779 15.2155 28.8289 15.116L26.6126 10.6253C26.3074 10.007 25.6895 9.62288 25 9.62288C24.3105 9.62288 23.6926 10.007 23.3874 10.6253L21.1711 15.116C21.1221 15.2155 21.0272 15.2844 20.9175 15.3003L15.9617 16.0204C15.2794 16.1196 14.7231 16.5885 14.51 17.2444C14.2969 17.9001 14.4712 18.6065 14.965 19.0878L18.5511 22.5833C18.6306 22.6608 18.6667 22.7722 18.648 22.8815L17.8014 27.8173C17.6848 28.497 17.959 29.1709 18.5168 29.5762C18.832 29.8052 19.2008 29.9215 19.5721 29.9215C19.8578 29.9215 20.1451 29.8526 20.4106 29.713L24.8432 27.3827C24.9414 27.3311 25.0586 27.3311 25.1566 27.3827L29.5893 29.713C30.1995 30.0338 30.9252 29.9814 31.4831 29.5762C32.041 29.1709 32.3151 28.4969 32.1985 27.8173L31.352 22.8815C31.3332 22.7722 31.3694 22.6608 31.4487 22.5834L35.0351 19.0878ZM29.9116 23.1285L30.7582 28.0644C30.7901 28.2506 30.6751 28.3568 30.6242 28.3938C30.5732 28.4308 30.4368 28.5073 30.2695 28.4194L25.8368 26.089C25.3128 25.8135 24.6872 25.8136 24.1632 26.089L19.7306 28.4195C19.5635 28.5074 19.4269 28.4308 19.3759 28.3938C19.325 28.3568 19.21 28.2506 19.2419 28.0644L20.0885 23.1286C20.1886 22.5452 19.9953 21.9502 19.5713 21.5368L15.9853 18.0413C15.8499 17.9094 15.8806 17.7559 15.9 17.6961C15.9194 17.6363 15.9849 17.4941 16.1719 17.4669L21.1277 16.7468C21.7136 16.6617 22.2197 16.294 22.4817 15.7631L24.698 11.2724C24.7816 11.103 24.9371 11.0847 25.0001 11.0847C25.0631 11.0847 25.2185 11.103 25.3021 11.2724L27.5185 15.7631C27.7805 16.294 28.2866 16.6618 28.8725 16.7468L33.8283 17.4669C34.0153 17.4941 34.0807 17.6363 34.1002 17.6961C34.1196 17.756 34.1503 17.9095 34.015 18.0413L30.4288 21.5369C30.0048 21.9502 29.8115 22.5452 29.9116 23.1285Z" fill="#C43100"/>
</g>
<defs>
<clipPath id="clip0">
<rect width="50" height="50" fill="white" transform="translate(0 -0.000366211)"/>
</clipPath>
</defs>
</svg>
