<svg width="160" height="138" viewBox="0 0 160 138" fill="none" xmlns="http://www.w3.org/2000/svg">
<path d="M40 31.4745H160L120 131.474H0L40 31.4745Z" fill="#C43100"/>
<path d="M121.621 31.4132L140.052 31.4268L99.6078 131.393L81.1428 131.379L121.621 31.4132Z" fill="#AB2B00"/>
<path d="M32.6562 72.1875C44.9883 72.1875 55 62.1758 55 49.8438C55 37.5117 44.9883 27.5 32.6562 27.5C20.3242 27.5 10.3125 37.5117 10.3125 49.8438C10.334 62.1758 20.3242 72.166 32.6562 72.1875ZM32.6562 30.9375C43.0977 30.9375 51.5625 39.4023 51.5625 49.8438C51.5625 60.2852 43.0977 68.75 32.6562 68.75C22.2148 68.75 13.75 60.2852 13.75 49.8438C13.7715 39.4023 22.2148 30.959 32.6562 30.9375Z" fill="#151515"/>
<path d="M20.625 49.8437C20.625 43.2051 26.0176 37.8125 32.6562 37.8125C33.6016 37.8125 33.6016 34.375 32.6562 34.375C24.127 34.375 17.1875 41.3145 17.1875 49.8437C17.1875 50.7891 20.625 50.7891 20.625 49.8437Z" fill="#151515"/>
<path d="M73.9062 63.5938C61.5742 63.5938 51.5625 73.6055 51.5625 85.9375C51.5625 98.2695 61.5742 108.281 73.9062 108.281C86.2383 108.281 96.25 98.2695 96.25 85.9375C96.2285 73.6055 86.2383 63.6152 73.9062 63.5938ZM73.9062 104.844C63.4648 104.844 55 96.3789 55 85.9375C55 75.4961 63.4648 67.0312 73.9062 67.0312C84.3477 67.0312 92.8125 75.4961 92.8125 85.9375C92.791 96.3789 84.3477 104.822 73.9062 104.844Z" fill="#151515"/>
<path d="M73.9063 70.4688C65.377 70.4688 58.4375 77.4082 58.4375 85.9375C58.4375 86.8828 61.875 86.8828 61.875 85.9375C61.875 79.2988 67.2676 73.9063 73.9063 73.9063C74.8516 73.9063 74.8516 70.4688 73.9063 70.4688Z" fill="#151515"/>
<path d="M63.5938 25.7812C70.2324 25.7812 75.625 20.3887 75.625 13.75C75.625 7.11133 70.2324 1.71875 63.5938 1.71875C56.9551 1.71875 51.5625 7.11133 51.5625 13.75C51.5625 20.3887 56.9551 25.7812 63.5938 25.7812ZM63.5938 5.15625C68.3418 5.15625 72.1875 9.00195 72.1875 13.75C72.1875 18.498 68.3418 22.3438 63.5938 22.3438C58.8457 22.3438 55 18.498 55 13.75C55 9.00195 58.8457 5.15625 63.5938 5.15625Z" fill="#151515"/>
<path d="M60.1563 13.75C60.1563 11.8594 61.7031 10.3125 63.5938 10.3125C64.5391 10.3125 64.5391 6.875 63.5938 6.875C59.791 6.875 56.7188 9.94726 56.7188 13.75C56.7188 14.6953 60.1563 14.6953 60.1563 13.75Z" fill="#151515"/>
<path d="M48.125 87.6562C48.125 81.0176 42.7324 75.625 36.0938 75.625C29.4551 75.625 24.0625 81.0176 24.0625 87.6562C24.0625 94.2949 29.4551 99.6875 36.0938 99.6875C42.7324 99.6875 48.125 94.2949 48.125 87.6562ZM36.0938 96.25C31.3457 96.25 27.5 92.4043 27.5 87.6562C27.5 82.9082 31.3457 79.0625 36.0938 79.0625C40.8418 79.0625 44.6875 82.9082 44.6875 87.6562C44.6875 92.4043 40.8418 96.25 36.0938 96.25Z" fill="#151515"/>
<path d="M36.0937 80.7812C32.291 80.7812 29.2188 83.8535 29.2188 87.6563C29.2188 88.6016 32.6562 88.6016 32.6562 87.6563C32.6562 85.7656 34.2031 84.2188 36.0937 84.2188C37.0391 84.2188 37.0391 80.7812 36.0937 80.7812Z" fill="#151515"/>
<path d="M68.75 44.6875C68.75 53.2383 75.668 60.1562 84.2188 60.1562C92.7695 60.1562 99.6875 53.2383 99.6875 44.6875C99.6875 36.1367 92.7695 29.2188 84.2188 29.2188C75.6895 29.2188 68.75 36.1582 68.75 44.6875ZM84.2188 32.6562C90.8574 32.6562 96.25 38.0488 96.25 44.6875C96.25 51.3262 90.8574 56.7188 84.2188 56.7188C77.5801 56.7188 72.1875 51.3262 72.1875 44.6875C72.1875 38.0488 77.5801 32.6562 84.2188 32.6562Z" fill="#151515"/>
<path d="M79.0625 44.6875C79.0625 41.8301 81.3613 39.5312 84.2188 39.5312C85.1641 39.5312 85.1641 36.0938 84.2188 36.0938C79.4707 36.0938 75.625 39.9395 75.625 44.6875C75.625 45.6328 79.0625 45.6328 79.0625 44.6875Z" fill="#151515"/>
<path d="M41.25 24.0625C44.1074 24.0625 46.4062 21.7637 46.4062 18.9062C46.4062 16.0488 44.1074 13.75 41.25 13.75C38.3926 13.75 36.0938 16.0488 36.0938 18.9062C36.0938 21.7637 38.3926 24.0625 41.25 24.0625ZM41.25 17.1875C42.1953 17.1875 42.9688 17.9609 42.9688 18.9062C42.9688 19.8516 42.1953 20.625 41.25 20.625C40.3047 20.625 39.5312 19.8516 39.5312 18.9062C39.5312 17.9609 40.3047 17.1875 41.25 17.1875Z" fill="#151515"/>
<path d="M67.0312 34.375C67.0312 31.5176 64.7324 29.2188 61.875 29.2188C59.0176 29.2188 56.7188 31.5176 56.7188 34.375C56.7188 37.2324 59.0176 39.5312 61.875 39.5312C64.7324 39.5312 67.0312 37.2324 67.0312 34.375ZM60.1562 34.375C60.1562 33.4297 60.9297 32.6562 61.875 32.6562C62.8203 32.6562 63.5938 33.4297 63.5938 34.375C63.5938 35.3203 62.8203 36.0938 61.875 36.0938C60.9297 36.0938 60.1562 35.3203 60.1562 34.375Z" fill="#151515"/>
<path d="M63.5938 63.5938C66.4512 63.5938 68.75 61.2949 68.75 58.4375C68.75 55.5801 66.4512 53.2812 63.5938 53.2812C60.7363 53.2812 58.4375 55.5801 58.4375 58.4375C58.4375 61.2949 60.7363 63.5938 63.5938 63.5938ZM63.5938 56.7188C64.5391 56.7188 65.3125 57.4922 65.3125 58.4375C65.3125 59.3828 64.5391 60.1562 63.5938 60.1562C62.6484 60.1562 61.875 59.3828 61.875 58.4375C61.875 57.4922 62.6484 56.7188 63.5938 56.7188Z" fill="#151515"/>
<path d="M18.9062 72.1875C16.0488 72.1875 13.75 74.4863 13.75 77.3438C13.75 80.2012 16.0488 82.5 18.9062 82.5C21.7637 82.5 24.0625 80.2012 24.0625 77.3438C24.0625 74.4863 21.7637 72.1875 18.9062 72.1875ZM18.9062 79.0625C17.9609 79.0625 17.1875 78.2891 17.1875 77.3438C17.1875 76.3984 17.9609 75.625 18.9062 75.625C19.8516 75.625 20.625 76.3984 20.625 77.3438C20.625 78.2891 19.8516 79.0625 18.9062 79.0625Z" fill="#151515"/>
<path d="M48.125 97.9688C45.2676 97.9688 42.9688 100.268 42.9688 103.125C42.9688 105.982 45.2676 108.281 48.125 108.281C50.9824 108.281 53.2812 105.982 53.2812 103.125C53.2812 100.268 50.9824 97.9688 48.125 97.9688ZM48.125 104.844C47.1797 104.844 46.4062 104.07 46.4062 103.125C46.4062 102.18 47.1797 101.406 48.125 101.406C49.0703 101.406 49.8438 102.18 49.8438 103.125C49.8438 104.07 49.0703 104.844 48.125 104.844Z" fill="#151515"/>
</svg>
