<svg width="160" height="138" viewBox="0 0 160 138" fill="none" xmlns="http://www.w3.org/2000/svg">
<path d="M40 31.4745H160L120 131.474H0L40 31.4745Z" fill="#C43100"/>
<path d="M121.621 31.4132L140.052 31.4268L99.6078 131.393L81.1428 131.379L121.621 31.4132Z" fill="#AB2B00"/>
<g clip-path="url(#clip0)">
<path d="M99.4207 34.8731C93.8243 31.3126 90.4839 25.2294 90.4839 18.5952V8.87097C90.4839 8.15453 90.0507 7.50654 89.3889 7.23192C88.7218 6.9547 87.9629 7.1089 87.4553 7.61656L74.6417 20.4301C65.4078 29.6632 60.3226 41.9422 60.3226 55C60.3226 68.6972 71.4641 79.8387 85.1613 79.8387C92.5595 79.8387 99.1954 76.5693 103.75 71.42C97.9246 88.6655 83.2043 101.845 65.063 105.458C69.9316 100.808 74.0154 92.7545 76.7001 82.0461L73.2583 81.1832C69.6674 95.5084 63.4647 104.825 56.7742 106.24V79.7997C59.8167 79.7573 62.8487 79.6291 65.8011 79.3683L65.4892 75.8346C62.6399 76.0841 59.7118 76.2089 56.7742 76.2513V33.7348C58.525 33.7591 60.2749 33.811 61.9937 33.9098L62.1981 30.3675C60.4092 30.2644 58.5926 30.2124 56.7725 30.1864V3.75284C61.5753 4.79587 66.2576 10.0102 69.8355 18.4358L73.1023 17.048C70.8083 11.6492 68.0881 7.45023 65.0864 4.56543C69.9386 5.53396 74.6435 7.17647 79.0062 9.48345L80.6652 6.34482C72.8164 2.19435 63.9403 0 55 0C24.6741 0 0 24.6741 0 55C0 85.3259 24.6741 110 55 110C85.3259 110 110 85.3259 110 55V54.1467C110 46.2936 106.045 39.0894 99.4207 34.8731ZM33.7097 55C33.7097 48.0981 34.3092 41.4631 35.3825 35.3825C40.9399 34.4019 46.9633 33.8232 53.2258 33.7296V76.2704C46.9616 76.1786 40.9399 75.5981 35.3825 74.6175C34.3092 68.5369 33.7097 61.9019 33.7097 55ZM31.6106 73.8725C15.1092 70.279 3.54839 63.0818 3.54839 55C3.54839 46.9182 15.1092 39.721 31.6106 36.1275C30.6724 41.9916 30.1613 48.3381 30.1613 55C30.1613 61.6619 30.6724 68.0084 31.6106 73.8725ZM53.2258 3.75024V30.1829C47.211 30.2644 41.4666 30.7573 36.1275 31.6124C39.4559 16.3281 45.8752 5.29746 53.2258 3.75024ZM53.2258 79.8188V106.251C45.8752 104.704 39.4559 93.6736 36.1275 78.3894C41.4666 79.2444 47.211 79.7374 53.2258 79.8188ZM44.9561 4.54031C39.2965 9.94432 34.7934 19.8323 32.3045 32.3045C19.8341 34.7934 9.94432 39.2965 4.54031 44.9561C8.57989 24.6273 24.6273 8.57989 44.9561 4.54031ZM4.54031 65.0439C9.94432 70.7035 19.8323 75.2066 32.3045 77.6955C34.7934 90.1659 39.2965 100.056 44.9561 105.46C24.6273 101.42 8.57989 85.3727 4.54031 65.0439ZM87.8053 76.1075C90.6719 73.0044 92.2581 69.0073 92.2581 64.7581C92.2581 60.2801 90.5142 56.0699 87.347 52.9027C86.7917 52.3474 86.2736 51.7678 85.7772 51.1709C90.4977 50.0837 94.0323 45.8544 94.0323 40.8064H90.4839C90.4839 44.6901 87.3452 47.8461 83.4737 47.8946C81.1217 43.9641 79.8387 39.4741 79.8387 34.7761V33.7097H76.2903V34.7761C76.2903 42.572 79.3259 49.8992 84.8382 55.4115C86.2468 56.8201 87.2846 58.499 87.9343 60.3226H85.1613C81.2473 60.3226 78.0645 57.1398 78.0645 53.2258H74.5161C74.5161 59.0968 79.2903 63.871 85.1613 63.871H88.6672C88.6863 64.1655 88.7097 64.4601 88.7097 64.7581C88.7097 68.2891 87.3348 71.6079 84.8382 74.1046L82.7928 76.15C72.165 74.9666 63.871 65.938 63.871 55C63.871 42.889 68.5871 31.5023 77.1506 22.9389L86.9355 13.154V18.5952C86.9355 26.4483 90.8902 33.6525 97.5148 37.8688C103.111 41.4293 106.452 47.5125 106.452 54.1467V55C106.452 65.8418 98.2988 74.8003 87.8053 76.1075Z" fill="#151515"/>
</g>
<defs>
<clipPath id="clip0">
<rect width="110" height="110" fill="white"/>
</clipPath>
</defs>
</svg>
