<svg width="160" height="138" viewBox="0 0 160 138" fill="none" xmlns="http://www.w3.org/2000/svg">
<path d="M40 31.4745H160L120 131.474H0L40 31.4745Z" fill="#C43100"/>
<path d="M121.621 31.4132L140.052 31.4268L99.6078 131.393L81.1428 131.379L121.621 31.4132Z" fill="#AB2B00"/>
<g clip-path="url(#clip0)">
<path d="M108.246 77.6902C109.372 76.5687 110 75.0589 110 73.4843C110 71.9098 109.394 70.4 108.268 69.3L99.4114 60.5L99.3681 60.4569C99.3465 60.4353 99.3248 60.4353 99.3032 60.4137C98.5886 59.702 97.6575 59.3138 96.6614 59.3138C96.315 59.3138 95.9902 59.3569 95.6437 59.4432C94.3228 59.7883 93.3268 60.7804 92.9803 62.0745C92.6772 63.153 92.0925 64.1883 91.2697 65.0294L91.0315 65.2667C89.7756 66.5177 88.1083 67.2079 86.3327 67.2079C84.5571 67.2079 82.8898 66.5177 81.6339 65.2667C79.0354 62.6785 79.0354 58.4941 81.6339 55.9059L81.8721 55.6687C82.6732 54.8706 83.7343 54.2667 84.8386 53.9647C86.1378 53.6196 87.1339 52.6275 87.4803 51.3118C87.8268 49.9961 87.4803 48.6157 86.5059 47.6667L86.3976 47.5588L77.5414 38.7373C76.5236 37.7236 75.1595 37.1196 73.7087 37.0118L73.3189 36.9902L73.2972 36.602C73.2106 35.1785 72.6043 33.8196 71.565 32.7843L62.6004 23.8549C61.8858 23.1432 60.9547 22.7549 59.9587 22.7549C59.6122 22.7549 59.2874 22.7981 58.941 22.8843C57.6201 23.2294 56.624 24.2216 56.2776 25.5157C55.9744 26.5941 55.3898 27.6294 54.5669 28.4706L54.3287 28.7079C53.0728 29.9588 51.4055 30.649 49.6299 30.649C47.8543 30.649 46.187 29.9588 44.9311 28.7079C43.6752 27.4569 42.9823 25.7961 42.9823 24.0275C42.9823 22.2588 43.6752 20.5981 44.9311 19.3471L45.1693 19.1098C45.9705 18.3118 47.0315 17.7079 48.1358 17.4059C49.4351 17.0608 50.4311 16.0687 50.7776 14.753C51.124 13.4373 50.7559 12.0785 49.8032 11.1079L40.8819 2.15689C39.7559 1.03532 38.2618 0.431396 36.6811 0.431396C35.1004 0.431396 33.5847 1.05689 32.4803 2.15689L23.6673 10.9353L23.1477 11.453L22.9528 10.7628C22.4764 9.12355 21.5886 7.63532 20.3976 6.44904L20.1378 6.19022C18.2323 4.29218 15.6988 3.23532 12.9921 3.23532C10.2854 3.23532 7.75198 4.29218 5.86812 6.19022C3.96261 8.08826 2.92324 10.6118 2.92324 13.3079C2.92324 16.0039 3.96261 18.5275 5.86812 20.4039L6.10631 20.6412C7.31891 21.849 8.83466 22.7334 10.437 23.1863L11.1516 23.3804L10.6319 23.8981L1.75395 32.7412C0.627967 33.8628 0.0216675 35.351 0.0216675 36.9255C0.0216675 38.5 0.627967 39.9883 1.75395 41.1098L11.0866 50.4059L10.3937 50.6C8.74804 51.1177 7.25395 51.9804 6.06301 53.1667L5.82482 53.4039C3.9193 55.3236 2.85828 57.8471 2.85828 60.5216C2.85828 63.1961 3.9193 65.7196 5.82482 67.6392C7.75198 69.5373 10.2854 70.5941 12.9705 70.5941C15.6555 70.5941 18.189 69.5373 20.1162 67.6392L20.3543 67.402C21.5453 66.2157 22.4331 64.7275 22.9095 63.1098L23.1043 62.4196L32.437 71.7157C33.4547 72.7294 34.8189 73.3334 36.2697 73.4412L36.6595 73.4628L36.6811 73.851C36.7677 75.2745 37.374 76.6334 38.4134 77.6687L47.378 86.5981C48.0925 87.3098 49.0236 87.6981 50.0197 87.6981C50.3661 87.6981 50.7126 87.6549 51.0374 87.5471C52.3583 87.202 53.3543 86.2098 53.7008 84.9157C54.0039 83.8373 54.5886 82.802 55.4114 81.9608L55.6496 81.7236C56.9055 80.4726 58.5728 79.7824 60.3484 79.7824C62.124 79.7824 63.7913 80.4726 65.0472 81.7236C66.3032 82.9745 66.9961 84.6353 66.9961 86.4039C66.9961 88.1726 66.3032 89.8334 65.0472 91.0843L64.8091 91.3216C64.0079 92.1196 62.9469 92.7235 61.8425 93.0255C60.5433 93.3706 59.5473 94.3628 59.2008 95.6785C58.8543 96.9941 59.2008 98.353 60.1752 99.3236L69.1398 108.253C70.2658 109.375 71.7598 109.978 73.3406 109.978C74.9213 109.978 76.4154 109.375 77.5414 108.253L86.1595 99.6687L86.6358 99.1726L86.874 99.8196C87.3721 101.222 88.1732 102.473 89.2343 103.551L89.4725 103.788C91.378 105.686 93.9114 106.743 96.6181 106.743C99.3248 106.743 101.858 105.686 103.742 103.788C105.648 101.89 106.709 99.3451 106.709 96.649C106.709 93.953 105.648 91.451 103.742 89.553L103.504 89.3157C102.421 88.2373 101.165 87.4608 99.7579 86.9647L99.1083 86.7275L99.6063 86.253L108.246 77.6902ZM36.6595 70.0118C36.0099 70.0118 35.3819 69.753 34.9055 69.2785L25.9626 60.3706C25.248 59.6588 24.3169 59.2706 23.3209 59.2706C22.9744 59.2706 22.6496 59.3137 22.3032 59.4C20.9823 59.7451 19.9862 60.7373 19.6398 62.0314C19.3366 63.1098 18.752 64.1451 17.9291 64.9863L17.691 65.2235C16.4351 66.4745 14.7677 67.1647 12.9921 67.1647C11.2165 67.1647 9.54923 66.4745 8.29332 65.2235C7.03742 63.9726 6.3445 62.3118 6.3445 60.5432C6.3445 58.7745 7.03742 57.1138 8.29332 55.8628L8.53151 55.6255C9.33269 54.8275 10.3937 54.2236 11.498 53.9216C12.7973 53.5765 13.7933 52.5843 14.1398 51.2687C14.4862 49.953 14.1181 48.5726 13.1654 47.6236L4.2008 38.6941C3.72442 38.2196 3.46458 37.5941 3.46458 36.9471C3.46458 36.3 3.72442 35.6745 4.2008 35.2L13.1654 26.2706C14.1181 25.3216 14.4862 23.9196 14.1398 22.6039C13.7933 21.2883 12.7973 20.2961 11.4764 19.951C10.3721 19.649 9.33269 19.0667 8.4882 18.2471L8.46655 18.2255L8.4449 18.2039L8.25001 17.9667C5.67324 15.4 5.67324 11.2157 8.27167 8.62747C9.52757 7.37649 11.1949 6.6863 12.9705 6.6863C14.7461 6.6863 16.4134 7.37649 17.6693 8.62747L17.9075 8.86473C18.7303 9.68434 19.315 10.6981 19.6181 11.8412C19.9646 13.1569 20.9606 14.149 22.2815 14.4941C22.6063 14.5804 22.9311 14.6236 23.2776 14.6236C24.2953 14.6236 25.248 14.2353 25.9626 13.5236L34.9272 4.59414C35.4036 4.11963 36.0099 3.86081 36.6811 3.86081C37.3524 3.86081 37.9587 4.11963 38.4351 4.59414L47.7677 13.8902L47.0748 14.1059C45.4508 14.5804 43.9784 15.4647 42.7658 16.651L42.5276 16.8883C40.6221 18.7863 39.561 21.3314 39.561 24.0059C39.561 26.6804 40.6221 29.2039 42.5276 31.1236C44.4331 33.0216 46.9665 34.0785 49.6732 34.0785C52.3799 34.0785 54.9134 33.0432 56.7972 31.1236L57.0354 30.8863C58.2264 29.7 59.1142 28.2118 59.5906 26.5941L59.7854 25.9039L69.1181 35.2C70.0925 36.1706 70.0925 37.7451 69.1181 38.6941L60.5 47.2785L60.0236 47.7745L59.7854 47.1275C59.2874 45.7255 58.4862 44.4745 57.4252 43.3961L57.187 43.1588C55.2815 41.2608 52.748 40.2039 50.0413 40.2039C47.3347 40.2039 44.8012 41.2608 42.9173 43.1588C41.0118 45.0569 39.9508 47.602 39.9508 50.2981C39.9508 52.9941 41.0118 55.4961 42.9173 57.3941L43.1555 57.6314C44.1299 58.602 45.2126 59.3138 46.5118 59.853L46.6201 59.8961L46.6851 59.9824L46.9449 60.3059L47.1831 60.6079L46.9016 60.8883L38.4134 69.3216C37.937 69.753 37.3091 70.0118 36.6595 70.0118ZM96.0335 87.504C96.3366 88.7765 97.2677 89.7902 98.502 90.2C99.498 90.5236 100.364 91.0628 101.1 91.7961L101.339 92.0334C102.594 93.2843 103.287 94.9451 103.287 96.7138C103.287 98.4824 102.594 100.143 101.339 101.394C100.083 102.645 98.4154 103.335 96.6398 103.335C94.8642 103.335 93.1969 102.645 91.941 101.394L91.7028 101.157C90.9665 100.424 90.4252 99.5392 90.1004 98.5686C89.689 97.3392 88.6929 96.4334 87.3937 96.1098C87.1122 96.0451 86.8091 96.002 86.5059 96.002C85.5098 96.002 84.5571 96.3902 83.8209 97.1236L75.0728 105.837C74.5965 106.312 73.9902 106.571 73.3189 106.571C72.6476 106.571 72.0197 106.312 71.565 105.837L62.752 97.0588L62.2323 96.5412L62.9252 96.3255C64.5492 95.851 66.0217 94.9667 67.2343 93.7804L67.4725 93.5432C69.378 91.6451 70.439 89.1 70.439 86.4255C70.439 83.751 69.378 81.2275 67.4725 79.3079C65.5669 77.4098 63.0335 76.353 60.3268 76.353C57.6201 76.353 55.0866 77.4098 53.2028 79.3079L52.9646 79.5451C51.7736 80.7314 50.8858 82.2196 50.4095 83.8373L50.1929 84.5275L40.8602 75.2314C40.3839 74.7569 40.124 74.153 40.124 73.4843C40.124 72.8157 40.3839 72.1902 40.8602 71.7373L50.691 61.9451C51.3189 61.3196 51.3622 60.3275 50.7992 59.6588L48.9587 57.351C48.7638 57.0922 48.4823 56.8981 48.1575 56.8118C47.1614 56.4883 46.2953 55.949 45.5591 55.2157L45.3209 54.9785C42.7225 52.3902 42.7225 48.1843 45.3209 45.6177C46.5768 44.3667 48.2441 43.6765 50.0197 43.6765C51.7953 43.6765 53.4626 44.3667 54.7185 45.6177L54.9567 45.8549C55.6929 46.5883 56.2343 47.4726 56.5591 48.4432C56.9705 49.6726 57.9665 50.5785 59.2658 50.902C59.5473 50.9667 59.8504 51.0098 60.1535 51.0098C61.1496 51.0098 62.1024 50.6216 62.8386 49.8883L71.5866 41.1745C72.063 40.7 72.691 40.4412 73.3406 40.4412C73.9902 40.4412 74.6181 40.7 75.0945 41.1745L84.4272 50.4706L83.7343 50.6863C82.1102 51.1608 80.6378 52.0451 79.4252 53.2314L79.187 53.4687C77.2815 55.3667 76.2205 57.9118 76.2205 60.6079C76.2205 63.3039 77.2815 65.8059 79.187 67.7039C81.0925 69.602 83.6476 70.6373 86.3543 70.6373C89.061 70.6373 91.5728 69.602 93.4784 67.7039L93.7165 67.4667C94.9075 66.2804 95.7953 64.7922 96.2717 63.1745L96.4882 62.4843L105.821 71.7804C106.774 72.751 106.752 74.3255 105.799 75.2745L97.0512 83.9883C96.1201 84.8941 95.7303 86.2098 96.0335 87.504Z" fill="#151515"/>
<path d="M14.248 36.9471L14.5512 36.6452L19.748 31.5765L17.2795 29.1393L10.5669 35.7177C10.2421 36.0412 10.0689 36.4726 10.0689 36.9256C10.0689 37.3785 10.2421 37.8099 10.5669 38.1334L17.2146 44.755L19.6614 42.3177L14.5512 37.2275L14.248 36.9471Z" fill="#151515"/>
<path d="M23.5259 46.3148L21.2139 48.6177L23.5259 50.9206L25.8379 48.6177L23.5259 46.3148Z" fill="#151515"/>
</g>
<defs>
<clipPath id="clip0">
<rect width="110" height="110" fill="white"/>
</clipPath>
</defs>
</svg>
