<svg width="160" height="138" viewBox="0 0 160 138" fill="none" xmlns="http://www.w3.org/2000/svg">
<path d="M40 31.4745H160L120 131.474H0L40 31.4745Z" fill="#C43100"/>
<path d="M121.621 31.4132L140.052 31.4268L99.6078 131.393L81.1428 131.379L121.621 31.4132Z" fill="#AB2B00"/>
<path d="M43.6764 30.3307V33.5661H106.765V35.1836H103.529V38.419H106.765V95.8454H103.529V99.0807H106.765V100.698H21.0293C16.5971 100.698 12.5417 99.0657 9.42326 96.3752L10.919 93.7898C10.0766 93.3023 9.27588 92.7315 8.5394 92.0923L7.01508 93.8495C6.66617 93.4037 6.33811 92.9409 6.03217 92.4627L7.47978 91.0819C6.80668 90.3761 6.19824 89.6033 5.67123 88.785L4.51838 89.5273C4.319 89.0323 4.14025 88.5272 3.98535 88.0113L4.93861 87.5189C4.49174 86.6535 4.12629 85.7417 3.85258 84.8082L3.35629 84.9539C3.29871 84.4546 3.26326 83.9491 3.24801 83.438L3.50947 83.3879C3.40033 82.8184 3.3275 82.2383 3.28324 81.6552C3.92713 72.4246 11.6372 65.1103 21.0287 65.1103C30.8404 65.1103 38.8227 73.0926 38.8227 82.9045H42.058V38.4192H43.6756V35.1838H42.0585V27.0956C42.0585 15.4999 32.6247 6.06628 21.0291 6.06628C9.43379 6.06628 0 15.4996 0 27.0954V82.9043C0 94.5001 9.43379 103.934 21.0293 103.934H110V30.3307H43.6764ZM3.23533 27.0954C3.23533 17.2837 11.2176 9.30119 21.0296 9.30119C30.8413 9.30119 38.8236 17.2835 38.8236 27.0954V71.7071C35.0954 65.8042 28.5126 61.8747 21.0296 61.8747C13.5465 61.8747 6.96352 65.804 3.23533 71.7071V27.0954Z" fill="#151515"/>
<path d="M48.5295 35.1826H45.2942V38.4179H48.5295V35.1826Z" fill="#151515"/>
<path d="M53.3824 35.1826H50.1471V38.4179H53.3824V35.1826Z" fill="#151515"/>
<path d="M58.2353 35.1826H55V38.4179H58.2353V35.1826Z" fill="#151515"/>
<path d="M63.0882 35.1826H59.8529V38.4179H63.0882V35.1826Z" fill="#151515"/>
<path d="M67.9414 35.1826H64.7061V38.4179H67.9414V35.1826Z" fill="#151515"/>
<path d="M72.7942 35.1826H69.5588V38.4179H72.7942V35.1826Z" fill="#151515"/>
<path d="M77.6471 35.1826H74.4117V38.4179H77.6471V35.1826Z" fill="#151515"/>
<path d="M82.5 35.1826H79.2646V38.4179H82.5V35.1826Z" fill="#151515"/>
<path d="M87.3529 35.1826H84.1176V38.4179H87.3529V35.1826Z" fill="#151515"/>
<path d="M92.206 35.1826H88.9707V38.4179H92.206V35.1826Z" fill="#151515"/>
<path d="M97.0588 35.1826H93.8235V38.4179H97.0588V35.1826Z" fill="#151515"/>
<path d="M101.912 35.1826H98.6765V38.4179H101.912V35.1826Z" fill="#151515"/>
<path d="M43.6765 95.8444H40.4412V99.0797H43.6765V95.8444Z" fill="#151515"/>
<path d="M38.8236 95.8444H35.5883V99.0797H38.8236V95.8444Z" fill="#151515"/>
<path d="M33.9707 95.8444H30.7354V99.0797H33.9707V95.8444Z" fill="#151515"/>
<path d="M29.1178 95.8444H25.8824V99.0797H29.1178V95.8444Z" fill="#151515"/>
<path d="M18.6029 95.8455C17.8702 95.8455 17.1333 95.7935 16.4134 95.6908L15.9573 98.8939C16.8278 99.0179 17.7179 99.0806 18.6029 99.0806H19.4117V95.8453H18.6029V95.8455Z" fill="#151515"/>
<path d="M12.2184 94.4609L10.8728 97.403C11.9462 97.8941 13.0715 98.2834 14.2179 98.5604L14.978 95.4157C14.0323 95.1871 13.104 94.8659 12.2184 94.4609Z" fill="#151515"/>
<path d="M24.2646 95.8444H21.0293V99.0797H24.2646V95.8444Z" fill="#151515"/>
<path d="M48.5295 95.8444H45.2942V99.0797H48.5295V95.8444Z" fill="#151515"/>
<path d="M53.3824 95.8444H50.1471V99.0797H53.3824V95.8444Z" fill="#151515"/>
<path d="M58.2353 95.8444H55V99.0797H58.2353V95.8444Z" fill="#151515"/>
<path d="M63.0882 95.8444H59.8529V99.0797H63.0882V95.8444Z" fill="#151515"/>
<path d="M67.9414 95.8444H64.7061V99.0797H67.9414V95.8444Z" fill="#151515"/>
<path d="M72.7942 95.8444H69.5588V99.0797H72.7942V95.8444Z" fill="#151515"/>
<path d="M77.6471 95.8444H74.4117V99.0797H77.6471V95.8444Z" fill="#151515"/>
<path d="M82.5 95.8444H79.2646V99.0797H82.5V95.8444Z" fill="#151515"/>
<path d="M87.3529 95.8444H84.1176V99.0797H87.3529V95.8444Z" fill="#151515"/>
<path d="M92.206 95.8444H88.9707V99.0797H92.206V95.8444Z" fill="#151515"/>
<path d="M97.0588 95.8444H93.8235V99.0797H97.0588V95.8444Z" fill="#151515"/>
<path d="M101.912 95.8444H98.6765V99.0797H101.912V95.8444Z" fill="#151515"/>
<path d="M35.5882 33.5651H32.3529V54.5944H35.5882V33.5651Z" fill="#151515"/>
<path d="M35.5882 57.8298H32.3529V61.0652H35.5882V57.8298Z" fill="#151515"/>
<path d="M9.70603 43.2709H6.4707V60.2562H9.70603V43.2709Z" fill="#151515"/>
<path d="M9.70603 30.3298H6.4707V40.0356H9.70603V30.3298Z" fill="#151515"/>
<path d="M9.70603 23.859H6.4707V27.0943H9.70603V23.859Z" fill="#151515"/>
<line x1="100.62" y1="42" x2="100.62" y2="93" stroke="#151515" stroke-width="3.24"/>
<line x1="90.62" y1="42" x2="90.62" y2="93" stroke="#151515" stroke-width="3.24"/>
<line x1="80.62" y1="42" x2="80.62" y2="93" stroke="#151515" stroke-width="3.24"/>
<line x1="71.62" y1="42" x2="71.62" y2="93" stroke="#151515" stroke-width="3.24"/>
<line x1="61.62" y1="42" x2="61.62" y2="93" stroke="#151515" stroke-width="3.24"/>
<line x1="51.62" y1="42" x2="51.62" y2="93" stroke="#151515" stroke-width="3.24"/>
</svg>
