<svg width="285" height="482" viewBox="0 0 285 482" fill="none" xmlns="http://www.w3.org/2000/svg">
<path d="M214.64 481C214.64 480.712 214.64 481.08 214.64 479.705C214.64 478.298 214.64 476.619 214.64 474.668C214.64 472.718 214.656 470.751 214.688 468.769C214.688 466.786 214.704 465.043 214.736 463.54C214.992 450.877 218.094 441.716 224.041 436.056C229.989 430.396 238.287 427.566 248.936 427.566C260.064 427.566 268.697 430.556 274.837 436.536C280.945 442.515 283.999 451.757 283.999 464.26V481H214.64ZM224.281 470.352H274.357V464.068C274.357 459.303 273.542 455.098 271.911 451.453C270.248 447.808 267.562 444.962 263.853 442.915C260.144 440.837 255.187 439.797 248.984 439.797C242.972 439.797 238.159 440.757 234.546 442.675C230.932 444.594 228.326 447.344 226.727 450.925C225.097 454.507 224.281 458.792 224.281 463.78V470.352Z" stroke="#FF4E13"/>
<path d="M214.64 363.809L254.691 387.648H283.999V399.304H254.643L214.64 423.191V410.528L244.475 393.404L214.64 376.568V363.809Z" stroke="#FF4E13"/>
<path d="M214.64 266.314L283.999 286.699V296.532L234.834 310.538L283.999 324.736V334.329L214.64 354.57V343.059L264.716 329.005L214.64 314.903V306.173L264.716 291.975L214.64 277.873V266.314Z" stroke="#FF4E13"/>
<path d="M283.999 267.817L214.64 242.875V230.26L283.999 205.366V217.069L266.587 223.257V249.734L283.999 256.065V267.817ZM256.226 247.048V226.135L226.008 236.543L256.226 247.048Z" stroke="#FF4E13"/>
<path d="M214.64 145.48V133.825H283.999V144.329L233.107 179.2H283.999V190.856H214.64V179.44L264.189 145.48H214.64Z" stroke="#FF4E13"/>
<path d="M214.64 114.156V102.5H283.999V114.156H214.64Z" stroke="#FF4E13"/>
<path d="M283.999 26.87V39.7728L250.183 59.5826L263.181 70.6628H283.999V82.7981H214.64V70.6628H248.264L214.64 42.7467V29.1724L241.693 51.1887L283.999 26.87Z" stroke="#FF4E13"/>
<path d="M214.64 12.6557V1L283.999 1V12.6557L214.64 12.6557Z" stroke="#FF4E13"/>
<path d="M198.381 481H60.4267L60.4267 383.371L96.5071 360.024L96.5071 438.552L113.486 438.552L113.486 347.29L145.322 326.066L145.322 438.552H164.423V321.822L198.381 349.413L198.381 481Z" stroke="#FF4E13"/>
<path d="M198.381 279.374L60.4267 374.881V321.822L149.567 260.273L60.4267 196.601V145.664L198.381 243.294V279.374Z" stroke="#FF4E13"/>
<path d="M60.4267 132.93L198.381 230.559V179.622L109.241 115.951L164.423 77.7482V137.175L198.381 160.521L198.381 1.34256L60.4267 98.972L60.4267 132.93Z" stroke="#FF4E13"/>
<path d="M124.098 260.175L61.9557 302.72L1 260.175L61.9557 214.793L124.098 260.175Z" stroke="#FF4E13"/>
<path d="M63 280.5L34 259L61 238.5L92.4999 259L63 280.5Z" stroke="#FF4E13"/>
</svg>
