<svg width="200" height="118" viewBox="0 0 130 77" fill="none" xmlns="http://www.w3.org/2000/svg">
<path d="M0 57.8606C0.0779444 57.8606 -0.0216398 57.8606 0.350761 57.8606C0.731822 57.8606 1.1865 57.8606 1.71479 57.8606C2.24308 57.8606 2.7757 57.865 3.31265 57.8736C3.8496 57.8736 4.32159 57.878 4.72863 57.8866C8.15819 57.9559 10.6394 58.796 12.1723 60.4068C13.7052 62.0177 14.4717 64.2651 14.4717 67.149C14.4717 70.1629 13.6619 72.5012 12.0424 74.164C10.4229 75.8182 7.92002 76.6452 4.53377 76.6452H0V57.8606ZM2.88395 60.4718V74.0341H4.58574C5.87615 74.0341 7.015 73.8133 8.0023 73.3716C8.98959 72.9212 9.76038 72.1937 10.3146 71.1891C10.8776 70.1845 11.159 68.8421 11.159 67.162C11.159 65.5338 10.8992 64.2304 10.3796 63.2518C9.85997 62.2732 9.11517 61.5673 8.14519 61.1343C7.17522 60.6926 6.01472 60.4718 4.66368 60.4718H2.88395Z" fill="#151515"/>
<path d="M31.7392 57.8606L25.2828 68.7079V76.6452H22.1261V68.6949L15.6567 57.8606H19.0862L23.7239 65.9409L28.2837 57.8606H31.7392Z" fill="#151515"/>
<path d="M58.1443 57.8606L52.6232 76.6452H49.9601L46.1668 63.3297L42.3216 76.6452H39.7234L34.2413 57.8606H37.3591L41.1654 71.423L44.9847 57.8606H47.349L51.1942 71.423L55.0135 57.8606H58.1443Z" fill="#151515"/>
<path d="M57.7371 76.6452L64.4923 57.8606H67.9088L74.651 76.6452H71.4813L69.8055 71.9296H62.6346L60.9198 76.6452H57.7371ZM63.3621 69.1236H69.026L66.207 60.9394L63.3621 69.1236Z" fill="#151515"/>
<path d="M90.8699 57.8606H94.0267V76.6452H91.1817L81.7374 62.8621V76.6452H78.5807V57.8606H81.6725L90.8699 71.2801V57.8606Z" fill="#151515"/>
<path d="M99.3537 57.8606H102.51V76.6452H99.3537V57.8606Z" fill="#151515"/>
<path d="M122.994 76.6452H119.499L114.134 67.4868L111.133 71.0073V76.6452H107.846V57.8606H111.133V66.9671L118.694 57.8606H122.37L116.407 65.1874L122.994 76.6452Z" fill="#151515"/>
<path d="M126.843 57.8606H130V76.6452H126.843V57.8606Z" fill="#151515"/>
<path d="M0 53.4574V16.0947H26.4413L32.7642 25.8665H11.4962V30.465H36.2131L41.9612 39.0872H11.4962V44.2605H43.1108L35.6383 53.4574H0Z" fill="#C43100"/>
<path d="M54.607 53.4574L28.7405 16.0947H43.1108L59.7803 40.2368L77.0246 16.0947H90.8201L64.3788 53.4574H54.607Z" fill="#C43100"/>
<path d="M94.269 16.0947L67.8277 53.4574H81.6231L98.8674 29.3154L109.214 44.2605H93.1193L86.7964 53.4574H129.907L103.466 16.0947H94.269Z" fill="#C43100"/>
<path d="M68.8547 16.5238L59.8756 28.8191L51.4572 16.5231L59.8751 4.46262L68.8547 16.5238Z" fill="#151515" stroke="#C43100" stroke-width="5.22034"/>
</svg>
