<svg viewBox="0 0 24 30" fill="none" xmlns="http://www.w3.org/2000/svg">
<path d="M22.0001 21.1501V24.9001C22.0012 25.2482 21.9441 25.5928 21.8326 25.9118C21.721 26.2308 21.5574 26.5171 21.3521 26.7525C21.1469 26.9878 20.9046 27.167 20.6408 27.2785C20.377 27.39 20.0974 27.4315 19.8201 27.4001C16.7429 26.9822 13.7871 25.6678 11.1901 23.5626C8.77388 21.6435 6.72539 19.0828 5.19006 16.0626C3.50003 12.8016 2.4483 9.08886 2.12006 5.22512C2.09507 4.87945 2.12793 4.53107 2.21656 4.20215C2.30518 3.87323 2.44763 3.57098 2.63482 3.31465C2.82202 3.05831 3.04986 2.85351 3.30385 2.71327C3.55783 2.57304 3.8324 2.50045 4.11006 2.50012H7.11006C7.59536 2.49415 8.06585 2.70897 8.43382 3.10454C8.80179 3.5001 9.04213 4.04943 9.11006 4.65012C9.23668 5.8502 9.47151 7.02853 9.81006 8.16262C9.9446 8.61003 9.97372 9.09626 9.89396 9.56372C9.81421 10.0312 9.62892 10.4603 9.36006 10.8001L8.09006 12.3876C9.51361 15.5171 11.5865 18.1082 14.0901 19.8876L15.3601 18.3001C15.6319 17.964 15.9752 17.7324 16.3492 17.6327C16.7231 17.533 17.1121 17.5694 17.4701 17.7376C18.3773 18.1608 19.32 18.4543 20.2801 18.6126C20.7658 18.6983 21.2095 19.0041 21.5266 19.472C21.8437 19.9398 22.0122 20.5371 22.0001 21.1501Z" stroke="#C43100" stroke-width="2" stroke-linecap="round" stroke-linejoin="round"/>
</svg>
