<svg width="54" height="54" viewBox="0 0 54 54" fill="none" xmlns="http://www.w3.org/2000/svg">
<circle cx="27" cy="27" r="27" fill="#9C55D5"/>
<path d="M37.2199 24.7508C37.2536 20.8025 33.8007 17.1832 29.5234 16.6822C29.431 16.6709 29.3389 16.6573 29.2473 16.6412C29.0322 16.6011 28.8142 16.5783 28.5954 16.5729C27.7178 16.5729 27.4836 17.1736 27.422 17.53C27.3617 17.8781 27.4192 18.1716 27.5916 18.3996C27.8818 18.7833 28.3935 18.8515 28.8042 18.9062C28.9234 18.9225 29.037 18.9376 29.1323 18.958C32.9763 19.7949 34.2703 21.1097 34.9026 24.8218C34.918 24.9119 34.925 25.0239 34.9334 25.1426C34.9615 25.5863 35.0175 26.5093 36.0367 26.5093C36.1208 26.5093 36.2134 26.5024 36.3087 26.4888C37.2564 26.3482 37.227 25.5044 37.2129 25.0989C37.2087 24.9843 37.2045 24.8764 37.2157 24.8041C37.218 24.7859 37.2189 24.7677 37.2185 24.7494L37.2199 24.7508Z" fill="white"/>
<path d="M28.3458 15.2336C28.4608 15.2417 28.5673 15.2499 28.6571 15.2622C34.9699 16.2083 37.8733 19.1204 38.6766 25.316C38.6906 25.4211 38.6934 25.5494 38.6948 25.6846C38.7032 26.1692 38.72 27.1768 39.8303 27.1973H39.864C40.2131 27.1973 40.4892 27.0949 40.6883 26.8928C41.0332 26.542 41.0107 26.0191 40.9897 25.5986C40.9855 25.4948 40.9813 25.3979 40.9813 25.3119C41.0626 18.9771 35.4297 13.2307 28.9304 13.0177C28.9024 13.0177 28.8772 13.0177 28.8519 13.0218C28.8264 13.025 28.8006 13.0264 28.7748 13.0259C28.7089 13.0259 28.6304 13.0205 28.5449 13.015C28.444 13.0082 28.3276 13 28.2085 13C27.1738 13 26.9776 13.7168 26.9523 14.1441C26.8949 15.1312 27.8748 15.2008 28.3458 15.2336ZM38.3723 33.3232C38.2369 33.2229 38.1028 33.121 37.97 33.0174C37.2802 32.4767 36.547 31.9798 35.8391 31.4978L35.3975 31.1975C34.489 30.5763 33.6731 30.2746 32.9021 30.2746C31.8618 30.2746 30.9562 30.8343 30.2076 31.9361C29.8767 32.4248 29.4744 32.6624 28.9795 32.6624C28.6358 32.6507 28.2985 32.5683 27.9898 32.4207C25.0597 31.1265 22.9653 29.1414 21.7681 26.5215C21.1891 25.2545 21.3769 24.4272 22.3947 23.7527C22.9737 23.3705 24.049 22.6592 23.9747 21.2953C23.8877 19.7485 20.3816 15.0916 18.9039 14.5632C18.2723 14.3388 17.5798 14.3369 16.9469 14.5578C15.2491 15.1134 14.0323 16.0909 13.4224 17.3811C12.8336 18.6289 12.8617 20.0939 13.4982 21.6175C15.3417 26.0232 17.9324 29.865 21.2003 33.0351C24.398 36.1383 28.329 38.6791 32.8824 40.5891C33.2932 40.7611 33.7236 40.8553 34.039 40.9235C34.1456 40.9468 34.2381 40.9672 34.3054 40.985C34.3424 40.9947 34.3806 40.9997 34.4189 41H34.4554C36.5975 41 39.17 39.0941 39.9593 36.922C40.6518 35.0188 39.3873 34.0782 38.3723 33.3232ZM29.2935 20.2672C28.9276 20.2754 28.1636 20.2946 27.8958 21.0509C27.7697 21.4059 27.7851 21.7117 27.9407 21.9643C28.1678 22.3329 28.6038 22.4476 28.9991 22.5104C30.4361 22.7343 31.1749 23.507 31.3221 24.9446C31.3908 25.6136 31.8548 26.0819 32.4478 26.0819C32.4928 26.0818 32.5378 26.0791 32.5824 26.0737C33.2974 25.9918 33.6437 25.4798 33.6128 24.5528C33.624 23.5862 33.1053 22.4885 32.2207 21.6148C31.3347 20.7383 30.2665 20.244 29.2935 20.2672Z" fill="white"/>
</svg>
