<svg width="102" height="64" fill="none" xmlns="http://www.w3.org/2000/svg"><path d="M25.5 0H102L76.5 64H0L25.5 0z" fill="#C43100"/><path d="M73.683 0H88.12L62.232 63.976H47.794L73.683 0z" fill="#AB2B00"/><path d="M19.392 49.228c-.465 0-.912-.078-1.34-.235a2.726 2.726 0 01-1.07-.7c-.289-.31-.462-.698-.518-1.164h1.255c.08.366.272.646.577.84.306.19.669.284 1.09.284.445 0 .822-.088 1.13-.265.31-.176.464-.433.464-.77 0-.296-.113-.524-.339-.684-.226-.163-.523-.285-.891-.365l-1.324-.29c-.538-.11-.963-.323-1.275-.64-.308-.316-.466-.738-.473-1.264a1.876 1.876 0 01.344-1.14c.232-.326.55-.578.956-.754a3.38 3.38 0 011.379-.27c.597 0 1.1.098 1.508.295.408.196.717.458.926.784.213.324.322.68.329 1.07h-1.225c-.043-.43-.21-.73-.498-.9-.285-.173-.627-.26-1.025-.26-.399 0-.736.092-1.011.275a.872.872 0 00-.408.765c0 .233.076.423.229.57.156.143.446.265.871.365l1.294.29c.402.08.726.201.971.364.246.16.432.342.558.545.13.203.216.413.259.63.046.213.07.415.07.605 0 .376-.115.718-.344 1.024-.23.303-.554.545-.976.725-.421.18-.92.27-1.494.27zm4.198-.1V41.9h2.554c.518 0 .98.09 1.389.27.408.176.73.438.966.784.239.347.358.773.358 1.28 0 .476-.106.884-.319 1.224-.212.34-.51.6-.896.78-.381.18-.828.27-1.339.27H24.82v2.619h-1.23zm1.22-3.594h1.463c.422 0 .765-.126 1.03-.38.27-.253.404-.583.404-.99 0-.412-.14-.732-.418-.959-.279-.23-.629-.345-1.05-.345h-1.43v2.674zm10.584 3.594H34.13l-1.24-2.934h-1.673v2.934h-1.21V41.9h2.923c.826 0 1.435.19 1.827.57.392.376.588.877.588 1.504 0 .386-.063.711-.19.974-.126.26-.29.474-.492.64-.2.163-.414.297-.643.4l1.374 3.139zm-2.738-3.899c.458 0 .815-.106 1.07-.32.26-.213.389-.51.389-.89 0-.372-.12-.66-.359-.864-.239-.203-.554-.305-.946-.305h-1.593v2.38h1.44zm3.899 3.899v-.62l3.783-5.573h-3.574v-1.034h5.292v.59l-3.829 5.592h3.794v1.045h-5.466zm6.803 0V41.9h4.76l-.005 1.044h-3.535v2.024H47.7V46h-3.132v2.07l3.62.004v1.055h-4.83zm6.36-7.228h.781c.203 0 .407.002.613.006.205 0 .386.001.542.005 1.315.026 2.265.35 2.853.97.587.619.881 1.484.881 2.593 0 1.16-.31 2.06-.93 2.7-.621.636-1.58.954-2.878.954h-1.862V41.9zm1.23 1.005v5.218h.651c.495 0 .932-.085 1.31-.255.378-.173.674-.453.886-.84.216-.386.324-.902.324-1.549 0-.626-.1-1.128-.299-1.504a1.768 1.768 0 00-.856-.815c-.372-.17-.817-.255-1.335-.255h-.682zm4.985 6.223l2.59-7.227h1.308l2.584 7.227H61.2l-.642-1.814H57.81l-.657 1.814h-1.22zm2.156-2.894h2.17l-1.08-3.149-1.09 3.149zm5.294 2.894v-.62l3.783-5.573h-3.574v-1.034h5.292v.59l-3.829 5.592h3.794v1.045h-5.467zm2.315-8.052v-1.05h1.18v1.05h-1.18zm9.934.824l-2.475 4.174v3.054h-1.21v-3.059l-2.479-4.168h1.314l1.778 3.108 1.747-3.108h1.325zM32.201 19.689v-3.01h11.8v3.01h-4.182v11.445h-3.406V19.69h-4.212zm19.825 11.645c-1.394 0-2.602-.3-3.624-.9-1.016-.6-1.803-1.452-2.36-2.558-.558-1.107-.837-2.42-.837-3.939 0-1.526.283-2.845.847-3.958.57-1.113 1.364-1.973 2.38-2.58 1.022-.613 2.22-.919 3.594-.919 1.367 0 2.556.303 3.565.91 1.015.606 1.802 1.47 2.36 2.589.564 1.113.846 2.432.846 3.958 0 1.513-.275 2.822-.826 3.929-.551 1.106-1.335 1.962-2.35 2.569-1.016.6-2.214.9-3.595.9zm0-2.759c.923 0 1.666-.35 2.23-1.05.571-.699.857-1.878.857-3.538 0-1.706-.286-2.922-.856-3.648-.565-.733-1.308-1.1-2.23-1.1-.924 0-1.674.366-2.251 1.1-.571.726-.857 1.942-.857 3.648 0 1.666.286 2.849.857 3.549.577.693 1.327 1.04 2.25 1.04zm9.159 2.559V16.68h5.507c1.049 0 1.995.186 2.838.56.843.373 1.506.92 1.99 1.64.492.712.738 1.585.738 2.618 0 1.433-.465 2.552-1.394 3.359-.923.806-2.168 1.21-3.734 1.21h-2.54v5.067h-3.405zm3.376-7.647h2.47c.603 0 1.101-.213 1.493-.64.398-.433.597-.942.597-1.529 0-.606-.212-1.103-.637-1.49a2.093 2.093 0 00-1.484-.59h-2.44v4.25z" fill="#fff"/></svg>