<svg width="50" height="50" fill="none" xmlns="http://www.w3.org/2000/svg"><path d="M38.6 25.914a2.655 2.655 0 00-1.889-.783 2.66 2.66 0 00-1.89.783 2.656 2.656 0 00-.783 1.89c0 .714.278 1.385.783 1.89a2.665 2.665 0 001.89.782c.684 0 1.369-.26 1.89-.782a2.656 2.656 0 00.783-1.89c0-.714-.278-1.385-.783-1.89zm-1.005 2.774a1.25 1.25 0 01-1.767-1.767 1.24 1.24 0 01.883-.366c.334 0 .648.13.884.366s.366.55.366.883c0 .334-.13.648-.366.884zm1.005 4.25a2.676 2.676 0 00-3.779 0 2.655 2.655 0 00-.783 1.89c0 .714.278 1.385.783 1.89a2.664 2.664 0 001.89.782c.684 0 1.369-.26 1.89-.782a2.656 2.656 0 00.783-1.89c0-.714-.278-1.385-.783-1.89zm-1.005 2.774a1.25 1.25 0 01-2.134-.884 1.246 1.246 0 011.25-1.249 1.246 1.246 0 011.25 1.25c0 .333-.13.647-.366.883z" fill="#C43100"/><path d="M47.323 14.233a2.68 2.68 0 00-2.678 2.678v3.4h-1.431a6.448 6.448 0 00-2.121-4.425 6.446 6.446 0 00-4.919-1.622v-.85h.023c.792 0 1.436-.644 1.436-1.435v-4.93c0-.792-.644-1.436-1.436-1.436H34.73c-.792 0-1.437.644-1.437 1.436v4.93c0 .791.645 1.436 1.437 1.436h.022v.978l-2.305.21a.711.711 0 10.129 1.417l2.959-.269h.003l.712-.065.01-.001a5.023 5.023 0 013.882 1.259 5.021 5.021 0 011.66 3.728V39.32h-10.55l1.27-7.131a5.505 5.505 0 00-1.009-4.27 5.504 5.504 0 00-3.813-2.166h-.015l-18.68-1.587.314-6.029 18.853-1.717a.711.711 0 10-.129-1.417l-18.65 1.698.008-.136a1.482 1.482 0 00-.404-1.093 1.483 1.483 0 00-1.07-.46h-.008v-.48c0-.946-.77-1.715-1.715-1.715-.946 0-1.716.769-1.716 1.715v.48h-.19a1.479 1.479 0 00-1.474 1.553l.287 5.522a.713.713 0 001.42-.074l-.286-5.522a.05.05 0 01.014-.04c.016-.016.033-.016.039-.016h3.628a.05.05 0 01.039.017.05.05 0 01.014.04l-.578 11.122a.053.053 0 01-.054.05h-2.47a.053.053 0 01-.054-.05l-.06-1.153a.712.712 0 10-1.421.074l.06 1.153c.024.463.26.866.61 1.119v1.723c0 .908.58 1.683 1.389 1.975v3.716a.712.712 0 101.423 0v-3.716a2.103 2.103 0 001.387-1.975v-1.723c.35-.253.587-.656.611-1.12l.11-2.1 18.624 1.581a4.022 4.022 0 012.817 1.604c.686.915.95 2.038.747 3.164l-1.314 7.383H2.213A2.217 2.217 0 000 41.533v.64c0 1.22.993 2.213 2.213 2.213h42.9c1.22 0 2.214-.992 2.214-2.212v-.641c0-1.22-.993-2.213-2.213-2.213h-1.89V24.4h1.42v3.4a2.68 2.68 0 002.678 2.677A2.68 2.68 0 0050 27.799V16.911a2.68 2.68 0 00-2.677-2.678zm-12.594-2.242a.013.013 0 01-.013-.012v-4.93c0-.007.005-.013.013-.013h1.468c.008 0 .013.006.013.013v4.93a.013.013 0 01-.013.013H34.73zM6.496 15.014h-.584v-.48a.292.292 0 01.584 0v.48zm.292 15.518a.677.677 0 01-1.352 0V29.09h1.352v1.442zm38.326 10.212a.79.79 0 01.79.79v.64a.79.79 0 01-.79.79H2.213a.79.79 0 01-.79-.79v-.64a.79.79 0 01.79-.79h42.9zm-.469-17.767h-1.42v-1.242h1.42v1.242zm3.932 4.823c0 .692-.563 1.255-1.254 1.255a1.256 1.256 0 01-1.255-1.255V16.911a1.256 1.256 0 012.509 0v10.888z" fill="#C43100"/></svg>