<svg width="54" height="54" viewBox="0 0 54 54" fill="none" xmlns="http://www.w3.org/2000/svg"><circle cx="27" cy="27" r="27" fill="#0092C3"/><path d="M11.0023 26.5179C11.0023 17.5977 17.9863 11 27.0023 11C36.0183 11 43.0023 17.5977 43.0023 26.5179C43.0023 35.4331 36.0183 42.0358 27.0023 42.0358C25.3873 42.0358 23.8303 41.8218 22.3773 41.4209C22.0934 41.3436 21.7914 41.3677 21.5233 41.4889L18.3353 42.8896C18.1429 42.975 17.9325 43.0118 17.7225 42.9967C17.5126 42.9815 17.3096 42.915 17.1315 42.8028C16.9534 42.6906 16.8057 42.5364 16.7013 42.3536C16.597 42.1708 16.5393 41.9652 16.5333 41.7548L16.4393 38.9014C16.4332 38.7298 16.3928 38.5612 16.3203 38.4056C16.2478 38.25 16.1448 38.1106 16.0173 37.9956C14.4132 36.5491 13.136 34.7772 12.271 32.7982C11.4061 30.8192 10.9732 28.6784 11.0013 26.5189L11.0023 26.5179ZM22.0963 23.5965L17.4033 31.064C16.9343 31.7668 17.8303 32.5847 18.4973 32.0638L23.5493 28.2365C23.7151 28.1072 23.9195 28.037 24.1298 28.037C24.3401 28.037 24.5444 28.1072 24.7103 28.2365L28.4393 31.038C28.7051 31.2352 29.0086 31.3755 29.3311 31.4502C29.6535 31.525 29.9878 31.5325 30.3133 31.4724C30.6388 31.4123 30.9483 31.2858 31.2228 31.1008C31.4972 30.9158 31.7305 30.6762 31.9083 30.3971L36.6013 22.9296C37.0703 22.2267 36.1743 21.4249 35.5073 21.9298L30.4553 25.757C30.2922 25.8861 30.0903 25.9564 29.8823 25.9564C29.6743 25.9564 29.4724 25.8861 29.3093 25.757L25.5753 22.9556C25.3099 22.755 25.0056 22.6118 24.6818 22.5351C24.3581 22.4585 24.0219 22.45 23.6947 22.5103C23.3675 22.5706 23.0564 22.6983 22.7812 22.8853C22.506 23.0723 22.2728 23.3145 22.0963 23.5965Z" fill="white"/></svg>