<svg viewBox="0 0 24 30" fill="none" xmlns="http://www.w3.org/2000/svg"><path d="M22 21.15v3.75c.001.348-.056.693-.167 1.012a2.567 2.567 0 01-.48.84 1.966 1.966 0 01-.712.527 1.628 1.628 0 01-.82.121c-3.078-.418-6.034-1.732-8.63-3.837-2.417-1.92-4.466-4.48-6-7.5C3.5 12.802 2.447 9.089 2.12 5.225a3.09 3.09 0 01.096-1.023c.088-.329.23-.631.418-.887.187-.257.415-.461.669-.602.254-.14.528-.213.806-.213h3c.485-.006.956.209 1.324.605.368.395.608.944.676 1.545.127 1.2.362 2.379.7 3.513.135.447.164.933.084 1.4-.08.468-.265.897-.534 1.237l-1.27 1.588c1.424 3.13 3.496 5.72 6 7.5l1.27-1.588a1.92 1.92 0 01.99-.667c.373-.1.762-.064 1.12.105.907.423 1.85.716 2.81.875.486.085.93.391 1.247.859A2.91 2.91 0 0122 21.15z" stroke="#C43100" stroke-width="2" stroke-linecap="round" stroke-linejoin="round"/></svg>