<svg width="54" height="54" viewBox="0 0 54 54" fill="none" xmlns="http://www.w3.org/2000/svg"><circle cx="27" cy="27" r="27" fill="#3358C7"/><path d="M39.1593 32.9211C39.0197 32.8156 38.8814 32.7083 38.7445 32.5993C38.0334 32.0303 37.2774 31.5073 36.5475 31.0002L36.0922 30.6841C35.1556 30.0303 34.3143 29.7128 33.5194 29.7128C32.4469 29.7128 31.5132 30.3019 30.7413 31.4614C30.4002 31.9757 29.9854 32.2257 29.4751 32.2257C29.1208 32.2134 28.773 32.1267 28.4547 31.9714C25.4338 30.6094 23.2744 28.5203 22.04 25.7632C21.4431 24.4299 21.6367 23.5592 22.6861 22.8494C23.2831 22.4471 24.3917 21.6986 24.3151 20.2633C24.2255 18.6354 20.6105 13.7346 19.0871 13.1786C18.4358 12.9425 17.7219 12.9404 17.0693 13.1729C15.3189 13.7576 14.0643 14.7863 13.4356 16.1441C12.8285 17.4573 12.8574 18.9989 13.5136 20.6023C15.4143 25.2388 18.0854 29.2818 21.4546 32.6179C24.7516 35.8837 28.8045 38.5575 33.4991 40.5675C33.9226 40.7486 34.3664 40.8477 34.6916 40.9195C34.8014 40.944 34.8968 40.9655 34.9662 40.9842C35.0044 40.9944 35.0438 40.9997 35.0833 41H35.1209C37.3295 41 39.9818 38.9943 40.7955 36.7084C41.5095 34.7056 40.2058 33.7156 39.1593 32.9211Z" fill="white"/></svg>